<svg width="30" height="30" viewBox="0 0 30 30" fill="none" xmlns="http://www.w3.org/2000/svg">
<rect width="30" height="30" rx="15" fill="#F1F7FA"/>
<path d="M10.8327 17.5001H13.3327C13.5537 17.5001 13.7657 17.4123 13.9219 17.256C14.0782 17.0997 14.166 16.8878 14.166 16.6667C14.166 16.4457 14.0782 16.2338 13.9219 16.0775C13.7657 15.9212 13.5537 15.8334 13.3327 15.8334H10.8327C10.6117 15.8334 10.3997 15.9212 10.2434 16.0775C10.0871 16.2338 9.99935 16.4457 9.99935 16.6667C9.99935 16.8878 10.0871 17.0997 10.2434 17.256C10.3997 17.4123 10.6117 17.5001 10.8327 17.5001ZM20.8327 9.16675H9.16602C8.50297 9.16675 7.86709 9.43014 7.39825 9.89898C6.92941 10.3678 6.66602 11.0037 6.66602 11.6667V19.1667C6.66602 19.8298 6.92941 20.4657 7.39825 20.9345C7.86709 21.4034 8.50297 21.6667 9.16602 21.6667H20.8327C21.4957 21.6667 22.1316 21.4034 22.6005 20.9345C23.0693 20.4657 23.3327 19.8298 23.3327 19.1667V11.6667C23.3327 11.0037 23.0693 10.3678 22.6005 9.89898C22.1316 9.43014 21.4957 9.16675 20.8327 9.16675ZM21.666 19.1667C21.666 19.3878 21.5782 19.5997 21.4219 19.756C21.2657 19.9123 21.0537 20.0001 20.8327 20.0001H9.16602C8.945 20.0001 8.73304 19.9123 8.57676 19.756C8.42048 19.5997 8.33268 19.3878 8.33268 19.1667V14.1667H21.666V19.1667ZM21.666 12.5001H8.33268V11.6667C8.33268 11.4457 8.42048 11.2338 8.57676 11.0775C8.73304 10.9212 8.945 10.8334 9.16602 10.8334H20.8327C21.0537 10.8334 21.2657 10.9212 21.4219 11.0775C21.5782 11.2338 21.666 11.4457 21.666 11.6667V12.5001Z" fill="#064A72"/>
</svg>
