<svg width="30" height="30" viewBox="0 0 30 30" fill="none" xmlns="http://www.w3.org/2000/svg">
<rect width="30" height="30" rx="15" fill="#F1F7FA"/>
<path d="M14.9922 7.5C10.8522 7.5 7.49219 10.86 7.49219 15C7.49219 19.14 10.8522 22.5 14.9922 22.5C19.1322 22.5 22.4922 19.14 22.4922 15C22.4922 10.86 19.1322 7.5 14.9922 7.5ZM17.6997 12.255C18.5022 12.255 19.1472 12.9 19.1472 13.7025C19.1472 14.505 18.5022 15.15 17.6997 15.15C16.8972 15.15 16.2522 14.505 16.2522 13.7025C16.2447 12.9 16.8972 12.255 17.6997 12.255ZM13.1997 11.07C14.1747 11.07 14.9697 11.865 14.9697 12.84C14.9697 13.815 14.1747 14.61 13.1997 14.61C12.2247 14.61 11.4297 13.815 11.4297 12.84C11.4297 11.8575 12.2172 11.07 13.1997 11.07ZM13.1997 17.9175V20.73C11.3997 20.1675 9.97469 18.78 9.34469 17.01C10.1322 16.17 12.0972 15.7425 13.1997 15.7425C13.5972 15.7425 14.0997 15.8025 14.6247 15.9075C13.3947 16.56 13.1997 17.4225 13.1997 17.9175ZM14.9922 21C14.7897 21 14.5947 20.9925 14.3997 20.97V17.9175C14.3997 16.8525 16.6047 16.32 17.6997 16.32C18.5022 16.32 19.8897 16.6125 20.5797 17.1825C19.7022 19.41 17.5347 21 14.9922 21Z" fill="#064A72"/>
</svg>
