<svg width="20" height="18" viewBox="0 0 20 18" fill="none" xmlns="http://www.w3.org/2000/svg">
<path d="M17.3632 2.84123C16.9376 2.41541 16.4322 2.07761 15.876 1.84714C15.3198 1.61667 14.7236 1.49805 14.1215 1.49805C13.5194 1.49805 12.9233 1.61667 12.3671 1.84714C11.8108 2.07761 11.3055 2.41541 10.8799 2.84123L9.99652 3.72457L9.11319 2.84123C8.25344 1.98149 7.08738 1.49849 5.87152 1.49849C4.65566 1.49849 3.4896 1.98149 2.62985 2.84123C1.77011 3.70098 1.28711 4.86704 1.28711 6.0829C1.28711 7.29876 1.77011 8.46482 2.62985 9.32457L3.51318 10.2079L9.99652 16.6912L16.4799 10.2079L17.3632 9.32457C17.789 8.89894 18.1268 8.39358 18.3573 7.83736C18.5877 7.28115 18.7064 6.68497 18.7064 6.0829C18.7064 5.48083 18.5877 4.88465 18.3573 4.32844C18.1268 3.77222 17.789 3.26686 17.3632 2.84123Z" fill="#FF6634" stroke="#FF6634" stroke-width="2" stroke-linecap="round" stroke-linejoin="round"/>
</svg>
