<svg width="18" height="19" viewBox="0 0 18 19" fill="none" xmlns="http://www.w3.org/2000/svg">
<path d="M15.75 13.2272H5.25V3.01888H15.75V13.2272ZM15.75 1.56055H5.25C4.85218 1.56055 4.47064 1.71419 4.18934 1.98768C3.90804 2.26117 3.75 2.63211 3.75 3.01888V13.2272C3.75 13.614 3.90804 13.9849 4.18934 14.2584C4.47064 14.5319 4.85218 14.6855 5.25 14.6855H15.75C16.1478 14.6855 16.5294 14.5319 16.8107 14.2584C17.092 13.9849 17.25 13.614 17.25 13.2272V3.01888C17.25 2.63211 17.092 2.26117 16.8107 1.98768C16.5294 1.71419 16.1478 1.56055 15.75 1.56055ZM2.25 4.47721H0.75V16.1439C0.75 16.5307 0.908035 16.9016 1.18934 17.1751C1.47064 17.4486 1.85218 17.6022 2.25 17.6022H14.25V16.1439H2.25V4.47721ZM11.97 8.3345L9.9075 10.9158L8.4375 9.19492L6.375 11.7689H14.625L11.97 8.3345Z" fill="#064A72"/>
</svg>
