<svg width="212" height="178" viewBox="0 0 212 178" fill="none" xmlns="http://www.w3.org/2000/svg">
<path d="M31.0042 160.758C72.3432 183.662 139.367 183.662 180.706 160.758C222.045 137.853 222.045 100.713 180.706 77.8091C139.367 54.9048 72.3432 54.9048 31.0042 77.8041C-10.3347 100.703 -10.3347 137.848 31.0042 160.758Z" fill="#F5F5F5"/>
<path d="M183.111 76.4963C183.402 72.8785 186.193 66.7103 190.322 62.3158C194.451 57.9213 201.06 55.8018 205.139 57.5756C208.932 59.2241 208.1 64.3101 203.089 67.3216C198.079 70.3331 190.618 74.026 188.057 79.7283L183.106 86.573L183.111 76.4963Z" fill="#F68A44"/>
<path opacity="0.1" d="M183.111 76.4963C183.402 72.8785 186.193 66.7103 190.322 62.3158C194.451 57.9213 201.06 55.8018 205.139 57.5756C208.932 59.2241 208.1 64.3101 203.089 67.3216C198.079 70.3331 190.618 74.026 188.057 79.7283L183.106 86.573L183.111 76.4963Z" fill="black"/>
<path d="M182.59 81.2316H182.515C182.483 81.2214 182.454 81.205 182.428 81.1832C182.403 81.1615 182.382 81.1349 182.367 81.105C182.352 81.0751 182.344 81.0426 182.341 81.0092C182.339 80.9759 182.344 80.9424 182.355 80.9109C186.418 68.6445 197.948 60.4218 202.733 59.6351C202.766 59.6294 202.799 59.6302 202.831 59.6375C202.863 59.6448 202.893 59.6584 202.92 59.6776C202.946 59.6967 202.969 59.721 202.986 59.749C203.003 59.777 203.014 59.8081 203.019 59.8405C203.025 59.8731 203.024 59.9065 203.017 59.9388C203.01 59.9711 202.996 60.0017 202.977 60.0287C202.958 60.0557 202.934 60.0787 202.906 60.0963C202.878 60.1139 202.846 60.1257 202.814 60.1312C198.134 60.8978 186.834 68.9852 182.831 81.0712C182.812 81.1195 182.779 81.1609 182.736 81.1896C182.693 81.2183 182.642 81.233 182.59 81.2316Z" fill="white"/>
<path d="M183.653 91.4284C184.399 89.4241 187.16 86.2874 191.389 83.8371C196.079 81.1263 201.817 80.1692 203.305 77.8893C205.094 75.1484 202.894 72.2472 198.294 72.4426C193.694 72.638 185.161 78.225 183.122 87.4749L183.653 91.4284Z" fill="#F68A44"/>
<path d="M183.442 87.6604C183.403 87.6593 183.364 87.6508 183.327 87.6354C183.269 87.6044 183.225 87.5522 183.205 87.4896C183.184 87.4271 183.189 87.359 183.217 87.2996C187.185 79.3976 195.558 75.7047 199.883 74.7727C199.949 74.7587 200.018 74.7717 200.075 74.8089C200.132 74.846 200.172 74.9042 200.186 74.9706C200.2 75.0371 200.187 75.1063 200.15 75.1632C200.113 75.22 200.054 75.2598 199.988 75.2738C195.754 76.1907 187.546 79.8085 183.668 87.5402C183.644 87.5782 183.611 87.6094 183.571 87.6305C183.532 87.6516 183.487 87.6619 183.442 87.6604Z" fill="white"/>
<path d="M38.315 102.432L42.3838 100.082C42.3838 100.082 44.5384 90.4965 41.3315 78.3203C38.1246 66.1441 28.9098 57.0395 24.0643 58.9536C19.2189 60.8677 19.3742 64.4654 22.03 68.1133C24.2347 71.1498 31.3851 78.4355 34.8275 86.8636C36.8777 91.8137 38.0575 97.0806 38.315 102.432Z" fill="#E0E0E0"/>
<path d="M40.4796 101.43H40.4346C40.4015 101.426 40.3697 101.415 40.3409 101.398C40.3121 101.381 40.2869 101.359 40.2668 101.332C40.2468 101.306 40.2322 101.276 40.224 101.243C40.2158 101.211 40.2141 101.177 40.2191 101.144C43.0051 81.1013 30.5783 64.8964 24.9262 61.5191C24.8978 61.5022 24.873 61.4797 24.8533 61.4531C24.8336 61.4265 24.8194 61.3962 24.8115 61.364C24.8036 61.3319 24.8021 61.2985 24.8072 61.2658C24.8122 61.233 24.8237 61.2016 24.841 61.1734C24.8575 61.1451 24.8795 61.1205 24.9057 61.1009C24.9318 61.0812 24.9617 61.067 24.9934 61.0591C25.0252 61.0512 25.0582 61.0496 25.0905 61.0546C25.1229 61.0596 25.1539 61.0711 25.1817 61.0882C30.9191 64.5206 43.5312 80.9359 40.7152 101.215C40.7062 101.272 40.678 101.324 40.6352 101.364C40.5924 101.403 40.5375 101.426 40.4796 101.43Z" fill="white"/>
<path d="M38.315 102.432L32.2068 105.94C30.9337 105.303 29.5547 104.904 28.1381 104.762C25.5375 104.437 23.8088 101.931 24.0643 100.062C24.2397 98.7994 24.6406 97.3613 24.4502 96.0885C24.2748 94.9461 23.1674 93.9139 22.1352 93.518C21.2565 93.244 20.3396 93.1121 19.4193 93.1272C17.9512 93.062 16.4129 92.8917 15.1752 92.125C13.9375 91.3584 13.0256 89.8251 13.4314 88.412C13.6983 87.6753 14.1362 87.0124 14.7092 86.4779C15.2784 85.9435 15.7409 85.3058 16.0721 84.5988C16.6133 83.1808 15.6612 82.2838 14.5188 81.6274C10.5102 79.3174 8.70628 77.4985 10.1494 75.7548C11.5925 74.011 15.561 73.2494 19.6248 75.384C23.6885 77.5186 27.0558 75.2287 29.7365 75.6796C33.9356 76.3811 34.1861 79.3475 33.665 81.9281C33.1439 84.5086 38.325 85.596 39.6328 88.6776C40.5799 90.9375 41.3716 98.3183 38.315 102.432Z" fill="#EBEBEB"/>
<path d="M36.2754 103.855C36.2106 103.855 36.1484 103.83 36.1017 103.785C36.055 103.741 36.0274 103.679 36.0248 103.615C35.5238 89.3089 17.1893 76.8321 12.865 76.1205C12.8324 76.1151 12.8011 76.1032 12.7731 76.0856C12.7451 76.068 12.7208 76.0451 12.7017 76.0181C12.6826 75.991 12.6691 75.9605 12.6618 75.9282C12.6546 75.8959 12.6538 75.8625 12.6596 75.8299C12.6644 75.7975 12.6757 75.7664 12.6928 75.7384C12.7099 75.7104 12.7324 75.6861 12.759 75.6669C12.7856 75.6478 12.8158 75.6342 12.8478 75.6269C12.8798 75.6196 12.9129 75.6188 12.9452 75.6245C17.5 76.3761 36.0248 88.7577 36.5259 103.6C36.5273 103.632 36.5221 103.665 36.5106 103.696C36.4992 103.726 36.4818 103.754 36.4594 103.778C36.437 103.802 36.4101 103.821 36.3802 103.834C36.3503 103.847 36.3181 103.855 36.2854 103.855H36.2754Z" fill="white"/>
<path d="M103.571 0.527862L44.8142 34.4509C44.1828 34.8629 43.6574 35.4178 43.2805 36.0707C42.9035 36.7236 42.6857 37.4562 42.6445 38.2089V103.705C42.6849 104.458 42.9024 105.191 43.2794 105.844C43.6564 106.497 44.1823 107.052 44.8142 107.463L103.571 141.391C104.243 141.732 104.986 141.91 105.74 141.91C106.494 141.91 107.238 141.732 107.91 141.391L166.706 107.463C167.338 107.052 167.864 106.497 168.241 105.844C168.618 105.191 168.836 104.458 168.876 103.705V38.2089C168.835 37.4562 168.617 36.7236 168.24 36.0707C167.863 35.4178 167.338 34.8629 166.706 34.4509L107.945 0.527862C107.268 0.180936 106.518 0 105.758 0C104.997 0 104.248 0.180936 103.571 0.527862Z" fill="#37474F"/>
<path d="M105.76 71.4003V141.907C105.006 141.928 104.259 141.755 103.591 141.406L44.8293 107.483C44.198 107.071 43.6726 106.516 43.2956 105.863C42.9187 105.21 42.7008 104.478 42.6597 103.725V38.2088C42.7003 37.5 42.8959 36.8086 43.2327 36.1836C43.5694 35.5585 44.0392 35.0149 44.6089 34.5911C43.6368 35.2876 43.7119 36.3098 44.8293 36.9561L103.571 70.8792C104.244 71.2381 104.998 71.4175 105.76 71.4003Z" fill="#263238"/>
<path d="M166.707 34.4508L107.945 0.527827C107.273 0.186694 106.529 0.00891113 105.775 0.00891113C105.021 0.00891113 104.278 0.186694 103.606 0.527827L44.8494 34.4508C43.6518 35.1423 43.6518 36.2647 44.8494 36.9562L103.571 70.8792C104.243 71.2203 104.986 71.3981 105.74 71.3981C106.494 71.3981 107.238 71.2203 107.91 70.8792L166.707 36.9562C167.884 36.2647 167.884 35.1423 166.707 34.4508Z" fill="#455A64"/>
<path d="M110.911 73.8557L163.7 43.3801C164.296 43.0343 164.782 43.3149 164.782 44.0064V102.633C164.762 103.009 164.653 103.375 164.465 103.701C164.277 104.027 164.015 104.305 163.7 104.512L110.911 134.962C110.315 135.308 109.829 135.032 109.829 134.336V75.7347C109.849 75.3583 109.957 74.9919 110.145 74.6654C110.333 74.3388 110.596 74.0614 110.911 73.8557Z" fill="#263238"/>
<path d="M110.832 75.7347C110.852 75.536 110.915 75.344 111.015 75.1713C111.115 74.9985 111.251 74.849 111.413 74.7325L163.775 44.4974V102.623C163.754 102.821 163.691 103.013 163.591 103.185C163.491 103.358 163.356 103.508 163.194 103.625L110.832 133.855V75.7347Z" fill="#37474F"/>
<path d="M110.015 79.0718L121.474 72.4425C121.589 72.3785 121.719 72.3448 121.85 72.3448C121.982 72.3448 122.111 72.3785 122.226 72.4425L124.08 73.5149L112.054 80.2293L110.015 79.0718Z" fill="#455A64"/>
<path d="M124.266 73.9457V81.8427C124.252 82.0677 124.186 82.2864 124.073 82.4813C123.96 82.6762 123.803 82.8419 123.614 82.9651L112.049 89.6445V80.2443L123.614 73.5699C123.97 73.3645 124.266 73.5298 124.266 73.9457Z" fill="#263238"/>
<path d="M110.015 79.0718L112.049 80.2443V89.6495L110.015 88.472V79.0718Z" fill="black"/>
<path d="M116.949 81.0109C117.511 80.6852 117.952 80.9458 117.952 81.5972C117.934 81.949 117.834 82.2916 117.66 82.5979C117.486 82.9041 117.242 83.1654 116.949 83.361C116.388 83.6817 115.947 83.4211 115.947 82.7697C115.965 82.4185 116.064 82.0762 116.238 81.7707C116.412 81.4651 116.656 81.2049 116.949 81.0109Z" fill="#455A64"/>
<path d="M121.023 78.661C121.584 78.3353 122.025 78.5958 122.025 79.2472C122.007 79.599 121.907 79.9417 121.733 80.2479C121.559 80.5541 121.316 80.8155 121.023 81.011C120.457 81.3317 120.021 81.0712 120.021 80.4198C120.039 80.0687 120.139 79.7267 120.313 79.4213C120.487 79.1159 120.73 78.8555 121.023 78.661Z" fill="#455A64"/>
<path d="M109.824 79.1821L107.008 80.8106C106.627 81.0305 106.195 81.1463 105.755 81.1463C105.316 81.1463 104.884 81.0305 104.503 80.8106L102.443 79.6231C102.329 79.5566 102.199 79.5216 102.067 79.5216C101.935 79.5216 101.806 79.5566 101.692 79.6231L99.8477 80.6854L104.503 83.1607C104.884 83.3806 105.316 83.4963 105.755 83.4963C106.195 83.4963 106.627 83.3806 107.008 83.1607L111.859 80.3597L109.824 79.1821Z" fill="#455A64"/>
<path d="M100.299 90.1357L104.503 92.5659C104.884 92.7858 105.316 92.9015 105.756 92.9015C106.195 92.9015 106.627 92.7858 107.008 92.5659L111.859 89.7649V80.3596L107.008 83.1607C106.627 83.3806 106.195 83.4963 105.756 83.4963C105.316 83.4963 104.884 83.3806 104.503 83.1607L100.299 80.7354C99.9431 80.53 99.6475 80.6953 99.6475 81.1112V89.0082C99.6601 89.2341 99.7256 89.4538 99.8388 89.6496C99.9519 89.8454 100.11 90.0119 100.299 90.1357Z" fill="#37474F"/>
<path d="M105.771 92.8966C106.207 92.8974 106.636 92.7815 107.013 92.5609L111.864 89.7599V80.3596L107.013 83.1607C106.636 83.3813 106.207 83.4972 105.771 83.4964V92.8966Z" fill="#263238"/>
<path d="M110.015 119.043L121.474 112.429C121.588 112.362 121.718 112.327 121.85 112.327C121.982 112.327 122.112 112.362 122.226 112.429L124.08 113.501L112.054 120.215L110.015 119.043Z" fill="#455A64"/>
<path d="M124.266 113.902V121.799C124.253 122.025 124.187 122.244 124.074 122.44C123.961 122.636 123.804 122.802 123.614 122.926L112.049 129.601V120.2L123.614 113.531C123.97 113.32 124.266 113.486 124.266 113.902Z" fill="#263238"/>
<path d="M110.015 119.028L112.049 120.2V129.601L110.015 128.428V119.028Z" fill="black"/>
<path d="M116.949 120.962C117.511 120.636 117.952 120.902 117.952 121.548C117.935 121.9 117.835 122.243 117.661 122.55C117.487 122.856 117.243 123.117 116.949 123.312C116.388 123.638 115.947 123.377 115.947 122.726C115.965 122.374 116.065 122.031 116.239 121.725C116.413 121.419 116.656 121.158 116.949 120.962Z" fill="#455A64"/>
<path d="M121.023 118.612C121.584 118.286 122.025 118.552 122.025 119.198C122.008 119.55 121.908 119.893 121.734 120.199C121.56 120.506 121.317 120.767 121.023 120.962C120.457 121.288 120.021 121.027 120.021 120.376C120.039 120.024 120.138 119.681 120.313 119.375C120.487 119.068 120.73 118.807 121.023 118.612Z" fill="#455A64"/>
<path d="M109.824 119.138L107.008 120.767C106.627 120.986 106.195 121.102 105.755 121.102C105.316 121.102 104.884 120.986 104.503 120.767L102.443 119.579C102.329 119.513 102.199 119.478 102.067 119.478C101.935 119.478 101.806 119.513 101.692 119.579L99.8477 120.641L104.503 123.117C104.884 123.337 105.316 123.452 105.755 123.452C106.195 123.452 106.627 123.337 107.008 123.117L111.859 120.316L109.824 119.138Z" fill="#455A64"/>
<path d="M100.299 130.092L104.503 132.517C104.884 132.737 105.316 132.852 105.756 132.852C106.195 132.852 106.627 132.737 107.008 132.517L111.859 129.716V120.316L107.008 123.117C106.627 123.336 106.195 123.452 105.756 123.452C105.316 123.452 104.884 123.336 104.503 123.117L100.299 120.691C99.9431 120.481 99.6475 120.651 99.6475 121.067V128.964C99.6609 129.19 99.7267 129.409 99.8398 129.605C99.9529 129.801 100.11 129.967 100.299 130.092Z" fill="#37474F"/>
<path d="M105.771 132.853C106.207 132.851 106.635 132.735 107.013 132.517L111.864 129.716V120.316L107.013 123.117C106.634 123.333 106.207 123.448 105.771 123.452V132.853Z" fill="#263238"/>
<path d="M145.521 80.9258L145.862 80.3346L143.793 79.137H143.752C142.099 78.215 139.834 78.3603 137.329 79.8084C132.273 82.7297 128.169 89.83 128.169 95.6726C128.169 98.5387 129.171 100.563 130.765 101.545L130.825 101.58L130.885 101.615L132.954 102.813L133.3 102.207C134.721 102.142 136.102 101.712 137.309 100.959C142.369 98.0377 146.468 90.9374 146.468 85.0948C146.519 83.6466 146.193 82.21 145.521 80.9258Z" fill="#263238"/>
<path d="M146.143 95.4523C149.72 89.257 149.72 82.5612 146.145 80.4967C142.569 78.4323 136.771 81.7809 133.194 87.9762C129.617 94.1715 129.616 100.867 133.192 102.932C136.768 104.996 142.566 101.648 146.143 95.4523Z" fill="#263238"/>
<path d="M145.812 95.2652C149.388 89.0699 149.389 82.3741 145.814 80.3096C142.238 78.2451 136.44 81.5938 132.863 87.7891C129.286 93.9843 129.285 100.68 132.861 102.745C136.436 104.809 142.235 101.46 145.812 95.2652Z" fill="#37474F"/>
<path d="M140.28 84.4685C140.074 84.5437 139.949 84.3733 139.999 84.0877L140.42 81.6524C140.442 81.5157 140.494 81.3857 140.574 81.2726C140.654 81.1596 140.759 81.0667 140.881 81.001C141.082 80.9259 141.212 81.0962 141.162 81.3819L140.741 83.8121C140.72 83.9498 140.668 84.0808 140.588 84.1947C140.508 84.3086 140.402 84.4024 140.28 84.4685Z" fill="#F68A44"/>
<path d="M136.827 87.0991C136.804 87.1114 136.778 87.1186 136.752 87.1202C136.725 87.1217 136.699 87.1176 136.674 87.1081C136.65 87.0986 136.627 87.084 136.609 87.0651C136.59 87.0463 136.576 87.0237 136.567 86.9988L135.885 85.4054C135.856 85.2721 135.859 85.1336 135.895 85.0017C135.93 84.8699 135.998 84.7488 136.091 84.6488C136.286 84.4183 136.507 84.3882 136.592 84.5736L137.273 86.1671C137.303 86.2996 137.3 86.4374 137.264 86.5684C137.228 86.6994 137.161 86.8197 137.068 86.9187C137.007 87.0007 136.923 87.0634 136.827 87.0991Z" fill="#F68A44"/>
<path d="M134.192 91.6339C134.155 91.6407 134.118 91.6407 134.082 91.6339L132.578 91.4886C132.398 91.4886 132.343 91.218 132.453 90.9223C132.563 90.6267 132.799 90.4213 132.954 90.4213L134.457 90.5666C134.633 90.5666 134.693 90.8372 134.583 91.1328C134.554 91.2381 134.505 91.3366 134.438 91.4226C134.371 91.5087 134.287 91.5805 134.192 91.6339Z" fill="#F68A44"/>
<path d="M131.596 97.7019C131.436 97.7621 131.316 97.6769 131.306 97.4764C131.306 97.3345 131.337 97.1944 131.398 97.0662C131.458 96.9379 131.547 96.8247 131.656 96.7348L133.435 95.3769C133.646 95.2166 133.831 95.2867 133.846 95.5373C133.845 95.679 133.813 95.8188 133.753 95.9469C133.692 96.075 133.604 96.1883 133.495 96.2789L131.712 97.6368C131.677 97.6649 131.638 97.6869 131.596 97.7019Z" fill="#F68A44"/>
<path d="M133.33 101.771C133.3 101.788 133.265 101.798 133.23 101.798C133.195 101.798 133.16 101.788 133.13 101.771C132.994 101.665 133.014 101.355 133.175 101.079L134.538 98.7341C134.698 98.4585 134.939 98.3233 135.074 98.4285C135.209 98.5337 135.189 98.8494 135.029 99.125L133.671 101.465C133.592 101.6 133.473 101.707 133.33 101.771Z" fill="#F68A44"/>
<path d="M137.223 102.136C137.018 102.212 136.893 102.041 136.943 101.756L137.364 99.3254C137.384 99.1883 137.436 99.0578 137.515 98.9439C137.594 98.8301 137.698 98.736 137.82 98.669C138.025 98.5938 138.15 98.7642 138.1 99.0498L137.679 101.485C137.658 101.621 137.605 101.751 137.526 101.863C137.447 101.976 137.344 102.07 137.223 102.136Z" fill="#F68A44"/>
<path d="M141.773 98.669C141.75 98.6812 141.723 98.6882 141.697 98.6894C141.67 98.6906 141.644 98.6861 141.619 98.6761C141.594 98.6661 141.572 98.6509 141.553 98.6315C141.535 98.6121 141.521 98.589 141.513 98.5638L140.831 96.9954C140.801 96.8629 140.805 96.7251 140.84 96.594C140.876 96.463 140.944 96.3428 141.037 96.2438C141.232 96.0133 141.458 95.9782 141.538 96.1686L142.214 97.757C142.244 97.8903 142.241 98.0289 142.205 98.1607C142.169 98.2925 142.102 98.4137 142.009 98.5137C141.943 98.5829 141.863 98.6361 141.773 98.669Z" fill="#F68A44"/>
<path d="M145.251 92.6861C145.214 92.6934 145.177 92.6934 145.14 92.6861L143.637 92.5408C143.462 92.5408 143.407 92.2702 143.517 91.9746C143.627 91.679 143.858 91.4735 144.018 91.4735L145.521 91.6188C145.702 91.6188 145.757 91.8894 145.646 92.185C145.584 92.3971 145.443 92.5767 145.251 92.6861Z" fill="#F68A44"/>
<path d="M144.544 87.8307C144.389 87.8908 144.268 87.8006 144.253 87.6002C144.254 87.4592 144.286 87.3202 144.347 87.1929C144.407 87.0656 144.495 86.9532 144.604 86.8636L146.388 85.5007C146.598 85.3403 146.779 85.4155 146.799 85.666C146.795 85.8066 146.762 85.9447 146.702 86.0716C146.641 86.1985 146.555 86.3113 146.448 86.4026L144.659 87.7655C144.624 87.7926 144.585 87.8145 144.544 87.8307Z" fill="#F68A44"/>
<path d="M143.226 84.7491C143.196 84.7666 143.161 84.7759 143.126 84.7759C143.091 84.7759 143.056 84.7666 143.026 84.7491C142.89 84.6438 142.91 84.3332 143.071 84.0576L144.429 81.7125C144.589 81.4369 144.83 81.3016 144.97 81.4069C145.11 81.5121 145.085 81.8278 144.925 82.1034L143.562 84.4434C143.485 84.5781 143.367 84.6851 143.226 84.7491Z" fill="#F68A44"/>
<path d="M143.782 86.092C142.911 84.7992 141.247 84.5386 139.338 85.641C136.532 87.2645 134.252 91.213 134.252 94.455C134.252 96.7749 135.414 98.0978 137.103 98.0828L141.017 98.173L145.942 89.1536L143.782 86.092Z" fill="#263238"/>
<path d="M142.655 88.903C141.552 89.6272 140.635 90.6012 139.979 91.746C139.322 92.8908 138.945 94.1742 138.877 95.4921C138.877 97.9123 140.576 98.8894 142.67 97.6818C143.774 96.9618 144.693 95.9919 145.352 94.8505C146.011 93.7092 146.392 92.4287 146.463 91.1127C146.463 88.6775 144.765 87.6954 142.655 88.903Z" fill="#455A64"/>
<path d="M160.764 72.5076C160.797 71.6857 160.606 70.8703 160.209 70.1496C159.812 69.4289 159.226 68.8303 158.514 68.4188L151.729 64.5054H151.699C151.376 64.3639 151.021 64.3089 150.669 64.3457C150.318 64.3826 149.982 64.5102 149.695 64.7159C148.854 65.2649 148.155 66.0051 147.656 66.876C147.156 67.7469 146.869 68.7237 146.819 69.7266C146.819 70.7288 147.22 71.4403 147.856 71.6808H147.896L154.41 73.7453C155.115 73.9688 155.736 74.4024 156.188 74.988C156.64 75.5737 156.903 76.2834 156.941 77.0223L157.687 90.9373C157.707 91.2357 157.839 91.5154 158.057 91.7199C158.275 91.9243 158.563 92.038 158.862 92.038C159.161 92.038 159.449 91.9243 159.667 91.7199C159.886 91.5154 160.018 91.2357 160.037 90.9373L160.764 72.5076Z" fill="#263238"/>
<path d="M99.1255 134.977L43.1952 102.688L15.23 118.832L71.1603 151.122L99.1255 134.977Z" fill="#F68A44"/>
<path opacity="0.15" d="M18.1714 118.832L71.1604 149.398L96.1842 134.952L43.1952 104.386L18.1714 118.832ZM19.6446 118.832L43.1952 105.233L94.7111 134.972L71.1604 148.571L19.6446 118.832Z" fill="black"/>
<g opacity="0.15">
<path opacity="0.15" d="M58.2227 135.263C54.4095 135.263 50.5011 134.386 47.4846 132.642C44.5482 130.948 42.8696 128.633 42.8696 126.303C42.8696 124.159 44.2476 122.185 46.748 120.736C52.0945 117.655 61.1189 117.845 66.8713 121.162C69.8026 122.856 71.4862 125.171 71.4862 127.506C71.4862 129.646 70.1082 131.625 67.6079 133.068C65.1075 134.511 61.6851 135.263 58.2227 135.263ZM56.1332 119.043C52.7609 119.043 49.4738 119.749 46.9985 121.177C44.6585 122.53 43.3707 124.349 43.3707 126.308C43.3707 128.458 44.9591 130.613 47.7351 132.216C53.3472 135.453 62.1511 135.649 67.3573 132.642C69.6974 131.289 70.9851 129.465 70.9851 127.511C70.9851 125.356 69.3967 123.207 66.6207 121.603C63.6744 119.9 59.8512 119.043 56.1332 119.043Z" fill="black"/>
</g>
<g opacity="0.1">
<path opacity="0.1" d="M58.2224 133.459C54.5996 133.459 51.0169 132.592 48.3912 131.074C46.0311 129.711 44.6782 127.972 44.6782 126.303C44.6782 124.835 45.7355 123.417 47.6546 122.295C49.8443 121.032 52.8558 120.336 56.1329 120.336C59.7557 120.336 63.3384 121.207 65.964 122.721C68.3241 124.084 69.677 125.822 69.677 127.496C69.677 128.964 68.6197 130.382 66.7006 131.505C64.5109 132.762 61.4794 133.459 58.2224 133.459Z" fill="black"/>
</g>
<path opacity="0.1" d="M68.2139 145.6L52.8408 136.666L54.0735 136.826C55.1736 136.967 56.2815 137.037 57.3906 137.037C61.1292 136.969 64.7967 136.003 68.0836 134.22C70.8045 132.652 73.5504 129.841 73.5504 127.105C73.5446 126.151 73.3326 125.209 72.9291 124.344L72.5983 123.628L89.4346 133.404L87.5906 134.471C87.2799 134.651 87.0895 134.872 87.0895 135.102C87.1099 135.242 87.1669 135.375 87.2549 135.486C87.343 135.597 87.4588 135.682 87.5906 135.734L89.4396 136.801L74.1016 145.6L72.5031 144.663C72.0848 144.453 71.6232 144.344 71.1552 144.344C70.6872 144.344 70.2257 144.453 69.8073 144.663L68.2139 145.6Z" fill="black"/>
<path d="M75.0088 139.341C74.1142 139.355 73.231 139.139 72.4433 138.715C72.1245 138.57 71.8494 138.343 71.6455 138.058C71.4415 137.774 71.3157 137.44 71.2808 137.092C71.3017 136.782 71.4059 136.484 71.5823 136.229C71.7587 135.974 72.0008 135.772 72.2829 135.643C73.0377 135.281 73.8672 135.1 74.7044 135.117C75.5417 135.133 76.3634 135.346 77.1033 135.739C77.4227 135.885 77.6983 136.112 77.9023 136.398C78.1063 136.683 78.2317 137.018 78.2658 137.367C78.2454 137.677 78.1414 137.975 77.965 138.23C77.7885 138.485 77.5461 138.687 77.2636 138.815C76.5687 139.179 75.7928 139.36 75.0088 139.341Z" fill="#F68A44"/>
<path opacity="0.1" d="M41.792 130.177L24.9909 120.496L26.8348 119.434C26.9742 119.396 27.0974 119.314 27.1852 119.199C27.2731 119.084 27.3207 118.944 27.3207 118.8C27.3207 118.655 27.2731 118.515 27.1852 118.4C27.0974 118.286 26.9742 118.203 26.8348 118.166L24.9858 117.099L40.2988 108.38L41.8922 109.302C42.3099 109.511 42.7705 109.62 43.2376 109.62C43.7047 109.62 44.1653 109.511 44.583 109.302L46.1814 108.38L61.5495 117.224L60.3068 117.063C59.2051 116.923 58.0954 116.852 56.9847 116.853C53.3419 116.853 48.9925 117.95 46.1564 119.589C42.6188 121.633 40.8249 123.823 40.8249 126.103C40.8364 127.253 41.0554 128.392 41.4713 129.465L41.792 130.177Z" fill="black"/>
<path d="M39.7876 119.103C38.8915 119.116 38.0068 118.9 37.2171 118.477C36.8986 118.33 36.624 118.103 36.4209 117.817C36.2178 117.531 36.0932 117.197 36.0596 116.848C36.0803 116.539 36.1845 116.242 36.361 115.988C36.5375 115.734 36.7797 115.532 37.0617 115.405C37.8162 115.041 38.6458 114.86 39.4833 114.877C40.3208 114.893 41.1426 115.107 41.8821 115.5C42.2006 115.647 42.4751 115.874 42.6782 116.16C42.8813 116.446 43.0059 116.78 43.0396 117.129C43.0183 117.437 42.914 117.734 42.7375 117.988C42.5611 118.242 42.3192 118.444 42.0374 118.572C41.3453 118.938 40.5706 119.121 39.7876 119.103Z" fill="#F68A44"/>
<path d="M99.1253 134.977V141.772L71.1602 157.916V151.122L99.1253 134.977Z" fill="#F68A44"/>
<g opacity="0.4">
<path opacity="0.4" d="M99.1253 134.977V141.772L71.1602 157.916V151.122L99.1253 134.977Z" fill="white"/>
</g>
<path d="M71.1602 152.635L79.9892 147.724L71.1602 153.046V152.635Z" fill="#F68A44"/>
<path d="M99.1255 138.204L96.1792 140.073L99.1255 138.545V138.204Z" fill="#F68A44"/>
<path d="M99.1254 139.823L84.4087 148.571L99.1254 140.324V139.823Z" fill="#F68A44"/>
<path d="M71.1602 154.254L85.8768 146.021L71.1602 154.79V154.254Z" fill="#F68A44"/>
<path d="M71.1603 157.916L15.23 125.627V118.832L71.1603 151.122V157.916Z" fill="#F68A44"/>
<g opacity="0.15">
<path opacity="0.15" d="M71.1603 157.916L15.23 125.627V118.832L71.1603 151.122V157.916Z" fill="black"/>
</g>
<g style="mix-blend-mode:multiply" opacity="0.3">
<g style="mix-blend-mode:multiply" opacity="0.3">
<path d="M71.1602 152.635L68.2139 151.122L71.1602 153.046V152.635Z" fill="black"/>
</g>
</g>
<g style="mix-blend-mode:multiply" opacity="0.3">
<g style="mix-blend-mode:multiply" opacity="0.3">
<path d="M71.1603 154.254L56.3584 145.981L71.1603 154.79V154.254Z" fill="black"/>
</g>
</g>
<g style="mix-blend-mode:multiply" opacity="0.3">
<g style="mix-blend-mode:multiply" opacity="0.3">
<path d="M15.23 122.029L25.5321 128.177L15.23 122.43V122.029Z" fill="black"/>
</g>
</g>
<g style="mix-blend-mode:multiply" opacity="0.3">
<g style="mix-blend-mode:multiply" opacity="0.3">
<path d="M15.23 123.738L21.1176 127.331L15.23 124.119V123.738Z" fill="black"/>
</g>
</g>
<path d="M76.0309 120.516L47.0936 137.227L38.2646 132.131L67.2019 115.415L76.0309 120.516Z" fill="#FAFAFA"/>
<path d="M38.2646 132.131V139.527L47.0936 144.623V137.227L38.2646 132.131Z" fill="#EBEBEB"/>
<path d="M47.0938 144.623L47.6099 144.322L47.0938 144.026V144.623Z" fill="#E0E0E0"/>
<path d="M76.0308 120.516V121.643L75.0537 121.077L76.0308 120.516Z" fill="#E0E0E0"/>
<g style="mix-blend-mode:multiply" opacity="0.3">
<g style="mix-blend-mode:multiply" opacity="0.3">
<path d="M47.6099 144.317V137.528L47.0938 137.227V144.022L47.6099 144.317Z" fill="black"/>
</g>
</g>
<g style="mix-blend-mode:multiply" opacity="0.2">
<g style="mix-blend-mode:multiply" opacity="0.2">
<path d="M47.6099 137.528L75.575 121.378L75.0539 121.077L47.0938 137.227L47.6099 137.528Z" fill="black"/>
</g>
</g>
<path d="M75.0836 119.965L46.1364 136.676L45.4048 136.25L74.3421 119.544L75.0836 119.965Z" fill="#455A64"/>
<path d="M68.8955 116.397L39.9533 133.103L39.2217 132.682L68.1589 115.976L68.8955 116.397Z" fill="#455A64"/>
<path d="M46.1364 136.676V144.072L45.4048 143.646V136.25L46.1364 136.676Z" fill="#263238"/>
<path d="M39.9534 133.103V140.499L39.2168 140.073L39.2218 132.682L39.9534 133.103Z" fill="#263238"/>
<path d="M99.1255 126.97L43.1952 94.6804L15.23 110.825L71.1603 143.115L99.1255 126.97Z" fill="#F68A44"/>
<path opacity="0.15" d="M18.1714 110.825L71.1604 141.391L96.1842 126.945L43.1952 96.379L18.1714 110.825ZM19.6446 110.825L43.1952 97.2309L94.7111 126.97L71.1604 140.569L19.6446 110.825Z" fill="black"/>
<g opacity="0.15">
<path opacity="0.15" d="M58.2227 127.26C54.4095 127.26 50.5011 126.379 47.4846 124.64C44.5482 122.946 42.8696 120.631 42.8696 118.296C42.8696 116.157 44.2476 114.177 46.748 112.734C52.0945 109.648 61.1189 109.838 66.8713 113.16C69.8026 114.854 71.4862 117.169 71.4862 119.504C71.4862 121.643 70.1082 123.618 67.6079 125.066C65.1075 126.514 61.6851 127.26 58.2227 127.26ZM56.1332 111.026C52.7609 111.026 49.4738 111.732 46.9985 113.165C44.6585 114.513 43.3707 116.337 43.3707 118.291C43.3707 120.446 44.9591 122.6 47.7351 124.199C53.3472 127.441 62.1511 127.631 67.3573 124.625C69.6974 123.272 70.9851 121.453 70.9851 119.499C70.9851 117.344 69.3967 115.189 66.6207 113.586C63.6744 111.892 59.8512 111.026 56.1332 111.026Z" fill="black"/>
</g>
<g opacity="0.1">
<path opacity="0.1" d="M58.2224 125.457C54.5996 125.457 51.0169 124.585 48.3912 123.071C46.0311 121.709 44.6782 119.97 44.6782 118.296C44.6782 116.828 45.7355 115.41 47.6546 114.288C49.8443 113.025 52.8558 112.328 56.1329 112.328C59.7557 112.328 63.3384 113.195 65.964 114.713C68.3241 116.076 69.677 117.815 69.677 119.489C69.677 120.957 68.6197 122.375 66.7006 123.497C64.5109 124.76 61.4794 125.457 58.2224 125.457Z" fill="black"/>
</g>
<path opacity="0.1" d="M68.2139 137.583L52.8408 128.654L54.0735 128.814C55.1736 128.954 56.2815 129.025 57.3906 129.024C61.1292 128.957 64.7967 127.991 68.0836 126.208C70.8045 124.64 73.5504 121.829 73.5504 119.088C73.544 118.135 73.3321 117.195 72.9291 116.332L72.5983 115.615L89.4346 125.387L87.5906 126.454C87.4593 126.506 87.3441 126.592 87.2562 126.703C87.1683 126.814 87.1108 126.945 87.0895 127.085C87.109 127.226 87.1657 127.359 87.2538 127.471C87.3418 127.583 87.4581 127.669 87.5906 127.722L89.4396 128.789L74.1016 137.583L72.5031 136.661C72.0848 136.451 71.6232 136.342 71.1552 136.342C70.6872 136.342 70.2257 136.451 69.8073 136.661L68.2139 137.583Z" fill="black"/>
<path d="M75.0088 131.339C74.1142 131.353 73.231 131.137 72.4433 130.713C72.1238 130.567 71.8483 130.34 71.6443 130.054C71.4402 129.768 71.3149 129.434 71.2808 129.084C71.3025 128.776 71.4071 128.479 71.5835 128.225C71.7599 127.971 72.0015 127.769 72.2829 127.641C73.0374 127.277 73.867 127.096 74.7045 127.113C75.542 127.129 76.3638 127.343 77.1033 127.736C77.4227 127.882 77.6983 128.109 77.9023 128.395C78.1063 128.681 78.2317 129.015 78.2658 129.365C78.2451 129.674 78.1409 129.971 77.9644 130.225C77.7879 130.479 77.5457 130.681 77.2636 130.808C76.57 131.176 75.7935 131.359 75.0088 131.339Z" fill="#F68A44"/>
<path opacity="0.1" d="M41.792 122.174L24.9909 112.494L26.8348 111.426C26.9666 111.375 27.0825 111.289 27.1705 111.178C27.2585 111.067 27.3156 110.935 27.3359 110.795C27.3359 110.564 27.1655 110.344 26.8348 110.164L24.9858 109.091L40.2988 100.373L41.8922 101.3C42.3107 101.506 42.771 101.613 43.2376 101.613C43.7042 101.613 44.1645 101.506 44.583 101.3L46.1814 100.378L61.5495 109.227L60.3068 109.066C59.2052 108.924 58.0955 108.852 56.9847 108.851C53.3419 108.851 48.9925 109.953 46.1564 111.592C42.6188 113.636 40.8249 115.826 40.8249 118.106C40.8374 119.256 41.0563 120.395 41.4713 121.468L41.792 122.174Z" fill="black"/>
<path d="M39.7876 111.101C38.8915 111.114 38.0068 110.898 37.2171 110.474C36.8986 110.328 36.624 110.1 36.4209 109.815C36.2178 109.529 36.0932 109.195 36.0596 108.846C36.0799 108.536 36.1839 108.238 36.3604 107.983C36.5369 107.728 36.7793 107.526 37.0617 107.398C37.8166 107.035 38.6464 106.854 39.4839 106.872C40.3214 106.889 41.143 107.104 41.8821 107.498C42.1999 107.644 42.474 107.871 42.677 108.155C42.8801 108.44 43.0051 108.773 43.0396 109.121C43.0192 109.431 42.9152 109.729 42.7388 109.984C42.5623 110.239 42.3199 110.441 42.0374 110.57C41.3453 110.936 40.5706 111.119 39.7876 111.101Z" fill="#F68A44"/>
<path d="M99.1253 126.97V133.769L71.1602 149.914V143.115L99.1253 126.97Z" fill="#F68A44"/>
<g opacity="0.4">
<path opacity="0.4" d="M99.1253 126.97V133.769L71.1602 149.914V143.115L99.1253 126.97Z" fill="white"/>
</g>
<path d="M71.1602 144.633L79.9892 139.717L71.1602 145.044V144.633Z" fill="#F68A44"/>
<path d="M99.1255 130.202L96.1792 132.071L99.1255 130.543V130.202Z" fill="#F68A44"/>
<path d="M99.1254 131.82L84.4087 140.569L99.1254 132.321V131.82Z" fill="#F68A44"/>
<path d="M71.1602 146.251L85.8768 138.019L71.1602 146.783V146.251Z" fill="#F68A44"/>
<path d="M71.1603 149.914L15.23 117.625V110.825L71.1603 143.115V149.914Z" fill="#F68A44"/>
<g opacity="0.15">
<path opacity="0.15" d="M71.1603 149.914L15.23 117.625V110.825L71.1603 143.115V149.914Z" fill="black"/>
</g>
<g style="mix-blend-mode:multiply" opacity="0.3">
<g style="mix-blend-mode:multiply" opacity="0.3">
<path d="M71.1602 144.633L68.2139 143.115L71.1602 145.044V144.633Z" fill="black"/>
</g>
</g>
<g style="mix-blend-mode:multiply" opacity="0.3">
<g style="mix-blend-mode:multiply" opacity="0.3">
<path d="M71.1603 146.251L56.3584 137.979L71.1603 146.782V146.251Z" fill="black"/>
</g>
</g>
<g style="mix-blend-mode:multiply" opacity="0.3">
<g style="mix-blend-mode:multiply" opacity="0.3">
<path d="M15.23 114.027L25.5321 120.175L15.23 114.428V114.027Z" fill="black"/>
</g>
</g>
<g style="mix-blend-mode:multiply" opacity="0.3">
<g style="mix-blend-mode:multiply" opacity="0.3">
<path d="M15.23 115.736L21.1176 119.323L15.23 116.117V115.736Z" fill="black"/>
</g>
</g>
<path d="M76.0309 112.509L47.0936 129.22L38.2646 124.124L67.2019 107.413L76.0309 112.509Z" fill="#FAFAFA"/>
<path d="M38.2646 124.124V131.52L47.0936 136.616V129.22L38.2646 124.124Z" fill="#EBEBEB"/>
<path d="M47.0938 136.616L47.6099 136.32L47.0938 136.019V136.616Z" fill="#E0E0E0"/>
<path d="M76.0308 112.509V113.641L75.0537 113.075L76.0308 112.509Z" fill="#E0E0E0"/>
<g style="mix-blend-mode:multiply" opacity="0.3">
<g style="mix-blend-mode:multiply" opacity="0.3">
<path d="M47.6099 136.315V129.52L47.0938 129.22V136.019L47.6099 136.315Z" fill="black"/>
</g>
</g>
<g style="mix-blend-mode:multiply" opacity="0.2">
<g style="mix-blend-mode:multiply" opacity="0.2">
<path d="M47.6099 129.52L75.575 113.376L75.0539 113.075L47.0938 129.22L47.6099 129.52Z" fill="black"/>
</g>
</g>
<path d="M75.0836 111.963L46.1364 128.668L45.4048 128.248L74.3421 111.537L75.0836 111.963Z" fill="#455A64"/>
<path d="M68.8955 108.395L39.9533 125.101L39.2217 124.675L68.1589 107.969L68.8955 108.395Z" fill="#455A64"/>
<path d="M46.1364 128.668V136.069L45.4048 135.643V128.248L46.1364 128.668Z" fill="#263238"/>
<path d="M39.9534 125.101V132.497L39.2168 132.071L39.2218 124.675L39.9534 125.101Z" fill="#263238"/>
</svg>
