<svg width="21" height="20" viewBox="0 0 21 20" fill="none" xmlns="http://www.w3.org/2000/svg">
<path d="M16.8376 10C16.6166 10 16.4047 10.0878 16.2484 10.2441C16.0921 10.4004 16.0043 10.6123 16.0043 10.8333V14.1667C16.0043 14.3877 15.9165 14.5996 15.7602 14.7559C15.604 14.9122 15.392 15 15.171 15H7.17931L8.26264 13.925C8.41956 13.7681 8.50772 13.5553 8.50772 13.3333C8.50772 13.1114 8.41956 12.8986 8.26264 12.7417C8.10572 12.5847 7.89289 12.4966 7.67097 12.4966C7.44906 12.4966 7.23623 12.5847 7.07931 12.7417L4.57931 15.2417C4.50344 15.3209 4.44397 15.4144 4.40431 15.5167C4.32096 15.7196 4.32096 15.9471 4.40431 16.15C4.44397 16.2523 4.50344 16.3457 4.57931 16.425L7.07931 18.925C7.15678 19.0031 7.24894 19.0651 7.35049 19.1074C7.45204 19.1497 7.56097 19.1715 7.67097 19.1715C7.78098 19.1715 7.88991 19.1497 7.99146 19.1074C8.09301 19.0651 8.18517 19.0031 8.26264 18.925C8.34075 18.8475 8.40274 18.7554 8.44505 18.6538C8.48736 18.5523 8.50914 18.4433 8.50914 18.3333C8.50914 18.2233 8.48736 18.1144 8.44505 18.0129C8.40274 17.9113 8.34075 17.8191 8.26264 17.7417L7.17931 16.6667H15.171C15.834 16.6667 16.4699 16.4033 16.9387 15.9344C17.4076 15.4656 17.671 14.8297 17.671 14.1667V10.8333C17.671 10.6123 17.5832 10.4004 17.4269 10.2441C17.2706 10.0878 17.0587 10 16.8376 10Z" fill="#828282"/>
<path d="M2.33814 11C2.55915 11 2.77112 10.9122 2.9274 10.7559C3.08368 10.5996 3.17147 10.3877 3.17147 10.1667L3.17147 6.83333C3.17147 6.61232 3.25927 6.40036 3.41555 6.24408C3.57183 6.0878 3.78379 6 4.00481 6L11.9965 6L10.9131 7.075C10.7562 7.23192 10.6681 7.44475 10.6681 7.66667C10.6681 7.88858 10.7562 8.10141 10.9131 8.25833C11.0701 8.41525 11.2829 8.50341 11.5048 8.50341C11.7267 8.50341 11.9396 8.41525 12.0965 8.25833L14.5965 5.75833C14.6723 5.67908 14.7318 5.58563 14.7715 5.48333C14.8548 5.28045 14.8548 5.05288 14.7715 4.85C14.7318 4.74771 14.6723 4.65425 14.5965 4.575L12.0965 2.075C12.019 1.99689 11.9268 1.9349 11.8253 1.89259C11.7237 1.85028 11.6148 1.8285 11.5048 1.8285C11.3948 1.8285 11.2859 1.85028 11.1843 1.89259C11.0828 1.9349 10.9906 1.99689 10.9131 2.075C10.835 2.15247 10.773 2.24464 10.7307 2.34619C10.6884 2.44773 10.6666 2.55666 10.6666 2.66667C10.6666 2.77668 10.6884 2.8856 10.7307 2.98715C10.773 3.0887 10.835 3.18086 10.9131 3.25833L11.9965 4.33333L4.00481 4.33333C3.34176 4.33333 2.70588 4.59672 2.23704 5.06557C1.7682 5.53441 1.50481 6.17029 1.50481 6.83333L1.50481 10.1667C1.50481 10.3877 1.5926 10.5996 1.74888 10.7559C1.90516 10.9122 2.11713 11 2.33814 11Z" fill="#828282"/>
</svg>
