<svg width="30" height="30" viewBox="0 0 30 30" fill="none" xmlns="http://www.w3.org/2000/svg">
<rect width="30" height="30" rx="15" fill="#F1F7FA"/>
<path d="M22.6245 7.38338C22.3061 7.05885 21.9024 6.83106 21.46 6.72636C21.0176 6.62166 20.5546 6.64432 20.1245 6.79172L8.33285 10.7334C7.85727 10.8891 7.44175 11.1885 7.14364 11.5904C6.84553 11.9923 6.67953 12.4769 6.66855 12.9771C6.65758 13.4774 6.80217 13.9688 7.08237 14.3834C7.36257 14.798 7.76456 15.1153 8.23285 15.2917L12.5995 16.9584C12.6989 16.9964 12.7895 17.0545 12.8655 17.1291C12.9415 17.2036 13.0013 17.293 13.0412 17.3917L14.7078 21.7667C14.8775 22.2284 15.1854 22.6265 15.5895 22.9069C15.9936 23.1872 16.4743 23.3361 16.9662 23.3334H17.0245C17.5254 23.3243 18.0108 23.1587 18.4128 22.8598C18.8148 22.5609 19.1132 22.1437 19.2662 21.6667L23.2078 9.85838C23.3512 9.4325 23.3725 8.975 23.2694 8.53762C23.1664 8.10024 22.943 7.70043 22.6245 7.38338ZM21.6662 9.33338L17.6828 21.15C17.6366 21.2996 17.5437 21.4304 17.4177 21.5234C17.2918 21.6164 17.1394 21.6666 16.9828 21.6667C16.8272 21.6693 16.6745 21.6244 16.545 21.5381C16.4155 21.4517 16.3153 21.328 16.2578 21.1834L14.5912 16.8084C14.4703 16.4905 14.284 16.2016 14.0442 15.9604C13.8045 15.7192 13.5167 15.5311 13.1995 15.4084L8.82451 13.7417C8.67692 13.6876 8.55006 13.5885 8.46183 13.4585C8.37361 13.3284 8.32849 13.1738 8.33285 13.0167C8.33297 12.8602 8.38319 12.7078 8.47616 12.5818C8.56912 12.4559 8.69995 12.363 8.84951 12.3167L20.6662 8.37505C20.8018 8.31975 20.9506 8.30494 21.0945 8.3324C21.2384 8.35986 21.3713 8.42842 21.4771 8.52979C21.5829 8.63116 21.657 8.76099 21.6906 8.9036C21.7241 9.04621 21.7157 9.19549 21.6662 9.33338Z" fill="#064A72"/>
</svg>
