<svg width="360" height="123" viewBox="0 0 360 123" fill="none" xmlns="http://www.w3.org/2000/svg">
<rect width="360" height="123" fill="#F1F7FA"/>
<path d="M185.739 45L186.605 44.5L185.739 43L184.873 44.5L185.739 45ZM198.936 67.8573V68.8573H200.668L199.802 67.3573L198.936 67.8573ZM172.542 67.8573L171.676 67.3573L170.81 68.8573H172.542V67.8573ZM184.873 45.5L198.07 68.3573L199.802 67.3573L186.605 44.5L184.873 45.5ZM179.223 58.2861L186.605 45.5L184.873 44.5L177.491 57.2861L179.223 58.2861ZM172.429 57.1302C174.411 57.1302 176.261 57.6823 177.838 58.6406L178.876 56.9316C176.996 55.7883 174.788 55.1302 172.429 55.1302V57.1302ZM162 67.5588C162 61.7992 166.669 57.1302 172.429 57.1302V55.1302C165.564 55.1302 160 60.6947 160 67.5588H162ZM172.429 77.9874C166.669 77.9874 162 73.3184 162 67.5588H160C160 74.423 165.564 79.9874 172.429 79.9874V77.9874ZM182.854 67.8316C182.709 73.4648 178.097 77.9874 172.429 77.9874V79.9874C179.184 79.9874 184.681 74.5975 184.853 67.8829L182.854 67.8316ZM198.936 66.8573H183.853V68.8573H198.936V66.8573ZM183.853 66.8573H172.542V68.8573H183.853V66.8573ZM173.408 68.3573L179.223 58.2861L177.491 57.2861L171.676 67.3573L173.408 68.3573ZM177.838 58.6406C180.849 60.4715 182.857 63.7811 182.857 67.5588H184.857C184.857 63.0541 182.46 59.1101 178.876 56.9316L177.838 58.6406ZM182.857 67.5588C182.857 67.65 182.856 67.741 182.854 67.8316L184.853 67.8829C184.856 67.7752 184.857 67.6671 184.857 67.5588H182.857Z" fill="#FF6634"/>
</svg>
