<svg width="20" height="20" viewBox="0 0 20 20" fill="none" xmlns="http://www.w3.org/2000/svg">
<path fill-rule="evenodd" clip-rule="evenodd" d="M14.9057 10.9434C14.9057 13.5485 12.7938 15.6604 10.1887 15.6604C7.58356 15.6604 5.4717 13.5485 5.4717 10.9434C5.4717 8.33828 7.58356 6.22642 10.1887 6.22642C12.7938 6.22642 14.9057 8.33828 14.9057 10.9434ZM13.7736 10.9434C13.7736 12.9233 12.1686 14.5283 10.1887 14.5283C8.20879 14.5283 6.60377 12.9233 6.60377 10.9434C6.60377 8.96351 8.20879 7.35849 10.1887 7.35849C12.1686 7.35849 13.7736 8.96351 13.7736 10.9434Z" fill="#38364F"/>
<path fill-rule="evenodd" clip-rule="evenodd" d="M10 0C12.4003 0 14.5153 1.22156 15.7573 3.07692H18.4615C19.3112 3.07692 20 3.76572 20 4.61538V18.4615C20 19.3112 19.3112 20 18.4615 20H1.53846C0.688793 20 0 19.3112 0 18.4615V4.61538C0 3.76572 0.688793 3.07692 1.53846 3.07692H4.24273C5.48467 1.22156 7.59968 0 10 0ZM4.84723 4.209L5.1835 3.70665C6.22426 2.15183 7.99327 1.13208 10 1.13208C12.0067 1.13208 13.7757 2.15183 14.8165 3.70665L15.1528 4.209H18.4615C18.686 4.209 18.8679 4.39094 18.8679 4.61538V18.4615C18.8679 18.686 18.686 18.8679 18.4615 18.8679H1.53846C1.31402 18.8679 1.13208 18.686 1.13208 18.4615V4.61538C1.13208 4.39094 1.31402 4.209 1.53846 4.209H4.84723Z" fill="#38364F"/>
</svg>
