<svg width="19" height="19" viewBox="0 0 19 19" fill="none" xmlns="http://www.w3.org/2000/svg">
<path d="M6 7C6.82843 7 7.5 6.32843 7.5 5.5C7.5 4.67157 6.82843 4 6 4C5.17157 4 4.5 4.67157 4.5 5.5C4.5 6.32843 5.17157 7 6 7Z" fill="#38364F"/>
<path fill-rule="evenodd" clip-rule="evenodd" d="M18 2V11.4393L18.0303 11.4697L18 11.5V16C18 17.1046 17.1046 18 16 18H13L12.9697 18.0303L12.9393 18H2C0.89543 18 0 17.1046 0 16V2C0 0.89543 0.895431 0 2 0H16C17.1046 0 18 0.895431 18 2ZM2 1.5H16C16.2761 1.5 16.5 1.72386 16.5 2V9.93934L14.2012 7.64054C13.5431 6.98239 12.4849 6.95457 11.7931 7.57721L8.02718 10.9665L7.23744 10.1768C6.55402 9.49336 5.44598 9.49336 4.76256 10.1768L1.5 13.4393V2C1.5 1.72386 1.72386 1.5 2 1.5ZM13.1405 8.7012L16.5 12.0607V16C16.5 16.2761 16.2761 16.5 16 16.5H13.5607L9.08931 12.0286L12.7965 8.69215C12.8954 8.6032 13.0465 8.60718 13.1405 8.7012ZM1.5 15.5V16C1.5 16.2761 1.72386 16.5 2 16.5H11.4393L6.17678 11.2374C6.07915 11.1398 5.92085 11.1398 5.82322 11.2374L1.53033 15.5303L1.5 15.5Z" fill="#38364F"/>
</svg>
