<svg width="189" height="189" viewBox="0 0 189 189" fill="none" xmlns="http://www.w3.org/2000/svg">
<path d="M34.4146 24.6533H104.377V158.657H34.4146V24.6533Z" fill="#EDEEEF"/>
<path d="M11.8132 158.657H126.979" stroke="black" stroke-width="1.96818" stroke-miterlimit="10"/>
<path d="M78.3595 162.662L34.4146 158.657V24.6533L78.3595 28.658V162.662Z" fill="#FF6634"/>
<path d="M34.4146 24.6533L78.3595 28.658V162.662" stroke="black" stroke-width="1.96818" stroke-miterlimit="10"/>
<path d="M64.3583 96.0598C65.5746 96.0598 66.5606 95.0738 66.5606 93.8575C66.5606 92.6413 65.5746 91.6553 64.3583 91.6553C63.142 91.6553 62.156 92.6413 62.156 93.8575C62.156 95.0738 63.142 96.0598 64.3583 96.0598Z" fill="#EDEEEF"/>
<path d="M170.539 155.924V151.713L166.652 155.276L165.357 144.101L155.153 151.389L153.857 146.53L150.294 150.093V144.263L145.922 149.445L142.034 137.784L137.176 149.777L130.05 140.861L124.705 153.008V147.178L121.628 152.846L119.522 145.234L113.692 154.304L104.784 143.129L102.03 154.142L99.4391 151.065L97.4956 158.693H172.321L172.969 155.762L170.539 155.924Z" fill="#F4F4F4"/>
<path d="M93.2776 158.693H177.187" stroke="black" stroke-width="1.96818" stroke-miterlimit="10"/>
<path d="M153.004 65.8032C163.654 65.8032 172.288 57.1693 172.288 46.5188C172.288 35.8683 163.654 27.2344 153.004 27.2344C142.353 27.2344 133.719 35.8683 133.719 46.5188C133.719 57.1693 142.353 65.8032 153.004 65.8032Z" fill="#EDEEEF"/>
<path d="M153.004 26.731V66.3065" stroke="black" stroke-width="1.96818" stroke-miterlimit="10"/>
<path d="M172.792 46.5186H133.216" stroke="black" stroke-width="1.96818" stroke-miterlimit="10"/>
<path d="M133.72 46.5188C133.72 41.4043 135.751 36.4992 139.368 32.8827C142.985 29.2661 147.89 27.2344 153.004 27.2344" stroke="black" stroke-width="1.96818" stroke-miterlimit="10"/>
<path d="M132.627 155.242V116.233L121.994 106.253L120.834 158.315H135.047L132.627 155.242Z" fill="#E2E2E2"/>
<path d="M129.898 80.9008L112.195 79.688L108.975 102.371V158.315H125.419L123.681 155.199L129.898 80.9008Z" fill="#EDEEEF"/>
<path d="M121.639 122.202C125.362 121.614 129.035 120.746 132.628 119.607L121.812 114.443L121.639 122.202Z" fill="black"/>
<path d="M108.975 108.315V122.771C115.128 123.396 121.827 122.322 126.521 121.26L126.888 116.868L108.975 108.315Z" fill="black"/>
<path d="M125.419 158.314L123.68 155.199L129.898 80.9004" stroke="black" stroke-width="1.96818" stroke-miterlimit="10"/>
<path d="M109.589 63.7577V81.2716L134.4 87.3697V67.864C134.4 64.5031 133.273 61.2393 131.199 58.5943C129.126 55.9494 126.225 54.0761 122.962 53.2739H122.962C121.372 52.8832 119.714 52.8591 118.114 53.2035C116.514 53.5478 115.012 54.2516 113.724 55.2616C112.436 56.2716 111.394 57.5613 110.678 59.0332C109.961 60.5051 109.589 62.1207 109.589 63.7577L109.589 63.7577Z" fill="#FF6634"/>
<path d="M114.502 43.7184V46.5129C114.502 47.5629 114.854 48.5825 115.502 49.4089C116.15 50.2352 117.056 50.8204 118.075 51.071L122.522 52.164V41.2382L118.825 40.3294C118.311 40.2031 117.775 40.1953 117.258 40.3066C116.74 40.4179 116.255 40.6454 115.839 40.9719C115.422 41.2984 115.085 41.7153 114.854 42.1912C114.622 42.667 114.502 43.1892 114.502 43.7184L114.502 43.7184Z" fill="#EDEEEF"/>
<path d="M114.502 46.5132C114.502 47.5632 114.854 48.5828 115.502 49.4092C116.15 50.2355 117.056 50.8207 118.075 51.0713L122.522 52.1643" stroke="black" stroke-width="1.96818" stroke-miterlimit="10"/>
<path d="M119.033 45.9587C119.151 45.9587 119.247 45.8627 119.247 45.7442C119.247 45.6258 119.151 45.5298 119.033 45.5298C118.914 45.5298 118.818 45.6258 118.818 45.7442C118.818 45.8627 118.914 45.9587 119.033 45.9587Z" fill="black"/>
<path d="M115.739 45.9587C115.857 45.9587 115.953 45.8627 115.953 45.7442C115.953 45.6258 115.857 45.5298 115.739 45.5298C115.62 45.5298 115.524 45.6258 115.524 45.7442C115.524 45.8627 115.62 45.9587 115.739 45.9587Z" fill="black"/>
<path d="M116.705 47.0231V43.7183H115.05" stroke="black" stroke-width="1.96818" stroke-miterlimit="10"/>
<path d="M119.437 43.7188H117.782" stroke="black" stroke-width="1.96818" stroke-miterlimit="10"/>
<path d="M121.994 45.4113V46.559C122.292 46.559 122.577 46.4409 122.787 46.2307C122.997 46.0205 123.115 45.7354 123.115 45.4381C123.115 45.4037 123.114 45.3697 123.111 45.336C123.048 44.64 121.994 44.7125 121.994 45.4113Z" fill="#EDEEEF"/>
<path d="M121.994 46.5594C122.292 46.5594 122.577 46.4413 122.787 46.2311C122.997 46.0209 123.115 45.7358 123.115 45.4385" stroke="black" stroke-width="1.96818" stroke-miterlimit="10"/>
<path d="M117.611 47.4092C117.75 47.5484 117.939 47.6266 118.135 47.6266C118.332 47.6266 118.521 47.5484 118.66 47.4092" stroke="#FF6634" stroke-width="1.96818" stroke-linecap="round" stroke-linejoin="round"/>
<path d="M116.705 47.0259L117.429 47.2039" stroke="black" stroke-width="1.96818" stroke-miterlimit="10" stroke-linecap="round"/>
<path d="M114.502 42.7997C114.502 42.7997 116.849 42.4997 117.43 41.3633C117.43 41.3633 118.165 42.5477 119.247 42.4469C119.247 42.4469 119.876 43.7321 120.985 43.5053C120.985 43.5053 120.899 44.7119 121.994 44.9669" stroke="black" stroke-width="1.96818" stroke-miterlimit="10"/>
<path d="M114.502 44.9668C114.502 44.9668 109.796 42.1948 114.181 39.2212C118.566 36.2476 121.489 39.0196 121.489 39.0196C121.489 39.0196 124.312 39.8108 124.362 41.406C124.362 41.406 125.622 42.7996 125.219 44.11C125.219 44.11 126.796 48.2428 122.555 49.5532" stroke="black" stroke-width="1.96818" stroke-miterlimit="10"/>
<path d="M122.555 50.158C123.116 50.0911 123.651 49.883 124.11 49.5532" stroke="#FF6634" stroke-width="1.96818" stroke-linecap="round" stroke-linejoin="round"/>
<path d="M122.523 51.1405V54.8389C122.516 55.5095 122.749 56.1605 123.179 56.6751C123.609 57.1897 124.208 57.5342 124.869 57.6469C125.121 57.7009 125.383 57.6943 125.632 57.6278C125.881 57.5613 126.111 57.4366 126.303 57.2641C127.638 56.0041 126.983 53.0053 125.824 52.2745C125.85 51.8619 125.751 51.451 125.54 51.0956C125.329 50.7403 125.015 50.4573 124.639 50.2837" stroke="black" stroke-width="1.96818" stroke-miterlimit="10"/>
<path d="M109.589 81.2715L89.9893 114.569C89.9893 114.569 113.794 123.436 134.4 119.607V83.4219" fill="#FF6634"/>
<path d="M89.9885 114.57C89.9885 114.57 113.794 123.437 134.399 119.608" stroke="black" stroke-width="1.96818" stroke-miterlimit="10"/>
<path d="M129.898 57.1411C129.898 57.1411 137.025 63.3254 137.932 71.339C137.932 71.339 139.28 50.4609 139.733 49.5537C140.187 48.6465 140.943 52.9571 140.943 52.9571C140.943 52.9571 146.537 54.8457 143.665 58.9281C143.665 58.9281 151.443 83.1201 134.399 85.5393" stroke="black" stroke-width="1.96818" stroke-miterlimit="10"/>
<path d="M114.502 54.706C114.502 54.706 108.536 57.7189 103.798 68.6053C103.798 68.6053 95.9359 55.8868 90.3919 53.9805C84.8479 52.0741 83.7391 51.8522 83.5375 52.1647C83.3359 52.4773 86.3599 54.6949 86.3599 54.6949C86.3599 54.6949 84.8479 59.4063 89.4847 60.3266C89.4847 60.3266 90.1993 80.4997 99.0148 83.3221C107.83 86.1445 115.739 74.5525 115.739 74.5525" stroke="black" stroke-width="1.96818" stroke-miterlimit="10"/>
</svg>
