<svg width="30" height="30" viewBox="0 0 30 30" fill="none" xmlns="http://www.w3.org/2000/svg">
<rect width="30" height="30" rx="15" fill="#F1F7FA"/>
<path d="M9 9H13.5V13.5H9V9ZM21 9V13.5H16.5V9H21ZM16.5 17.25H18V15.75H16.5V14.25H18V15.75H19.5V14.25H21V15.75H19.5V17.25H21V19.5H19.5V21H18V19.5H15.75V21H14.25V18H16.5V17.25ZM18 17.25V19.5H19.5V17.25H18ZM9 21V16.5H13.5V21H9ZM10.5 10.5V12H12V10.5H10.5ZM18 10.5V12H19.5V10.5H18ZM10.5 18V19.5H12V18H10.5ZM9 14.25H10.5V15.75H9V14.25ZM12.75 14.25H15.75V17.25H14.25V15.75H12.75V14.25ZM14.25 10.5H15.75V13.5H14.25V10.5ZM7.5 7.5V10.5H6V7.5C6 7.10218 6.15804 6.72064 6.43934 6.43934C6.72064 6.15804 7.10218 6 7.5 6H10.5V7.5H7.5ZM22.5 6C22.8978 6 23.2794 6.15804 23.5607 6.43934C23.842 6.72064 24 7.10218 24 7.5V10.5H22.5V7.5H19.5V6H22.5ZM7.5 19.5V22.5H10.5V24H7.5C7.10218 24 6.72064 23.842 6.43934 23.5607C6.15804 23.2794 6 22.8978 6 22.5V19.5H7.5ZM22.5 22.5V19.5H24V22.5C24 22.8978 23.842 23.2794 23.5607 23.5607C23.2794 23.842 22.8978 24 22.5 24H19.5V22.5H22.5Z" fill="#064A72"/>
</svg>
