<svg width="16" height="15" viewBox="0 0 16 15" fill="none" xmlns="http://www.w3.org/2000/svg">
<path d="M4.79 10.8351L6.11075 10.4647L14.063 2.64075C14.1257 2.57826 14.1606 2.49428 14.1602 2.40697C14.1598 2.31965 14.1241 2.236 14.0607 2.17408L13.5845 1.70596C13.5537 1.67521 13.517 1.65074 13.4763 1.63396C13.4357 1.61718 13.3921 1.60843 13.348 1.60823C13.3038 1.60802 13.2601 1.61637 13.2193 1.63277C13.1786 1.64918 13.1416 1.67331 13.1105 1.70377L5.17925 9.50731L4.78925 10.8344L4.79 10.8351ZM14.5272 0.778458L15.0035 1.24731C15.6605 1.89408 15.6665 2.93752 15.0155 3.57773L6.821 11.6409L3.998 12.4313C3.82565 12.4782 3.6412 12.4567 3.48512 12.3715C3.32905 12.2863 3.2141 12.1445 3.1655 11.977C3.12934 11.8566 3.12882 11.7287 3.164 11.608L3.98525 8.80804L12.158 0.766062C12.3134 0.613927 12.4984 0.493399 12.7022 0.411506C12.9061 0.329614 13.1246 0.287997 13.3451 0.289083C13.5657 0.290169 13.7838 0.333936 13.9867 0.417831C14.1897 0.501727 14.3734 0.624071 14.5272 0.777729V0.778458ZM5.888 1.61919C6.26 1.61919 6.5615 1.91596 6.5615 2.282C6.56209 2.36853 6.54514 2.45432 6.5116 2.53447C6.47807 2.61463 6.42861 2.68757 6.36606 2.74913C6.30351 2.81068 6.22909 2.85965 6.14706 2.89323C6.06503 2.92681 5.977 2.94433 5.888 2.94481H3.194C2.45 2.94481 1.847 3.53835 1.847 4.26971V12.222C1.847 12.9541 2.45 13.5476 3.194 13.5476H11.276C12.02 13.5476 12.6238 12.9541 12.6238 12.222V9.57148C12.6238 9.20543 12.9253 8.90866 13.2972 8.90866C13.6692 8.90866 13.9708 9.20543 13.9708 9.57221V12.222C13.9708 13.6862 12.764 14.8732 11.276 14.8732H3.194C1.706 14.8732 0.5 13.6862 0.5 12.222V4.26971C0.5 2.80627 1.706 1.61919 3.194 1.61919H5.888Z" fill="#064A72"/>
</svg>
