<svg width="36" height="36" viewBox="0 0 36 36" fill="none" xmlns="http://www.w3.org/2000/svg">
<circle cx="18" cy="18" r="18" fill="#F2F2F2"/>
<mask id="mask0" mask-type="alpha" maskUnits="userSpaceOnUse" x="0" y="0" width="36" height="36">
<circle cx="18" cy="18" r="18" fill="#F2F2F2"/>
</mask>
<g mask="url(#mask0)">
<path fill-rule="evenodd" clip-rule="evenodd" d="M17.9989 20.4C21.3126 20.4 23.9989 17.7137 23.9989 14.4C23.9989 11.0863 21.3126 8.40002 17.9989 8.40002C14.6852 8.40002 11.9989 11.0863 11.9989 14.4C11.9989 17.7137 14.6852 20.4 17.9989 20.4ZM18 48.0001L17.9462 48H18.0538L18 48.0001ZM6 36H30C29.9999 29.3726 24.6274 24.0001 18 24.0001C11.3726 24.0001 6.00006 29.3726 6 36Z" fill="#BDBDBD"/>
</g>
</svg>
