<svg width="20" height="20" viewBox="0 0 20 20" fill="none" xmlns="http://www.w3.org/2000/svg">
<path d="M13.333 9.16602C14.7163 9.16602 15.8247 8.04935 15.8247 6.66602C15.8247 5.28268 14.7163 4.16602 13.333 4.16602C11.9497 4.16602 10.833 5.28268 10.833 6.66602C10.833 8.04935 11.9497 9.16602 13.333 9.16602ZM6.66634 9.16602C8.04967 9.16602 9.15801 8.04935 9.15801 6.66602C9.15801 5.28268 8.04967 4.16602 6.66634 4.16602C5.28301 4.16602 4.16634 5.28268 4.16634 6.66602C4.16634 8.04935 5.28301 9.16602 6.66634 9.16602ZM6.66634 10.8327C4.72467 10.8327 0.833008 11.8077 0.833008 13.7494V15.8327H12.4997V13.7494C12.4997 11.8077 8.60801 10.8327 6.66634 10.8327ZM13.333 10.8327C13.0913 10.8327 12.8163 10.8493 12.5247 10.8744C13.4913 11.5743 14.1663 12.516 14.1663 13.7494V15.8327H19.1663V13.7494C19.1663 11.8077 15.2747 10.8327 13.333 10.8327Z" fill="#064A72"/>
</svg>
