<svg width="150" height="74" viewBox="0 0 150 74" fill="none" xmlns="http://www.w3.org/2000/svg">
<path fill-rule="evenodd" clip-rule="evenodd" d="M102.463 13.2764C123.545 6.5124 146.691 -5.20097 166.482 5.01168C186.692 15.4401 200.021 40.4268 200.974 64.1097C201.872 86.394 178.866 100.56 171.165 121.337C164.187 140.164 171.327 163.992 158.412 178.938C144.684 194.828 122.822 202.157 102.463 200.852C82.665 199.583 67.4829 184.075 51.2495 172.071C34.6985 159.833 15.0059 150.078 7.21512 130.422C-0.853519 110.065 -1.93016 84.604 9.16586 65.8946C19.7576 48.0353 44.0198 48.5873 61.644 38.6475C75.9211 30.5954 86.9705 18.2468 102.463 13.2764Z" stroke="#064A72" stroke-opacity="0.2" stroke-width="2"/>
<path fill-rule="evenodd" clip-rule="evenodd" d="M102.17 30.8211C119.036 25.4099 137.553 16.0392 153.386 24.2093C169.553 32.5521 180.217 52.5414 180.98 71.4878C181.697 89.3152 163.293 100.648 157.132 117.27C151.55 132.331 157.262 151.393 146.93 163.351C135.947 176.062 118.457 181.925 102.17 180.882C86.332 179.867 74.1863 167.46 61.1996 157.857C47.9588 148.066 32.2047 140.263 25.9721 124.538C19.5172 108.252 18.6559 87.8832 27.5327 72.9156C36.0061 58.6283 55.4158 59.0698 69.5152 51.118C80.9369 44.6763 89.7764 34.7975 102.17 30.8211Z" stroke="#064A72" stroke-opacity="0.2" stroke-width="2"/>
<path fill-rule="evenodd" clip-rule="evenodd" d="M101.878 48.3659C114.527 44.3074 128.414 37.2794 140.289 43.407C152.415 49.6641 160.413 64.6561 160.985 78.8658C161.523 92.2364 147.72 100.736 143.099 113.202C138.912 124.498 143.196 138.795 135.447 147.763C127.21 157.297 114.093 161.694 101.878 160.911C89.999 160.15 80.8897 150.845 71.1497 143.643C61.2191 136.3 49.4035 130.447 44.7291 118.653C39.8879 106.439 39.2419 91.1624 45.8995 79.9367C52.2546 69.2212 66.8118 69.5524 77.3864 63.5885C85.9526 58.7572 92.5823 51.3481 101.878 48.3659Z" stroke="#064A72" stroke-opacity="0.2" stroke-width="2"/>
</svg>
