<svg width="30" height="30" viewBox="0 0 30 30" fill="none" xmlns="http://www.w3.org/2000/svg">
<rect width="30" height="30" rx="15" fill="#F1F7FA"/>
<path d="M20.58 15.75C20.415 15.75 20.2425 15.6975 20.0775 15.66C19.7433 15.5864 19.415 15.4886 19.095 15.3675C18.747 15.2409 18.3646 15.2475 18.0212 15.386C17.6778 15.5244 17.3978 15.785 17.235 16.1175L17.07 16.455C16.3395 16.0487 15.6682 15.5439 15.075 14.955C14.486 14.3618 13.9813 13.6905 13.575 12.96L13.89 12.75C14.2225 12.5872 14.483 12.3072 14.6215 11.9638C14.76 11.6204 14.7665 11.238 14.64 10.89C14.5209 10.5693 14.4232 10.2411 14.3475 9.90752C14.31 9.74252 14.28 9.57002 14.2575 9.39752C14.1664 8.86924 13.8897 8.39083 13.4772 8.04845C13.0647 7.70608 12.5435 7.52223 12.0075 7.53002H9.75745C9.43423 7.52699 9.11414 7.59363 8.81899 7.72542C8.52383 7.85721 8.26054 8.05105 8.04703 8.29373C7.83352 8.53642 7.6748 8.82227 7.58169 9.13181C7.48858 9.44135 7.46326 9.76732 7.50745 10.0875C7.90701 13.2296 9.34198 16.1489 11.5857 18.3845C13.8294 20.6201 16.754 22.0444 19.8975 22.4325H20.1825C20.7355 22.4333 21.2695 22.2304 21.6825 21.8625C21.9197 21.6503 22.1093 21.3902 22.2386 21.0993C22.3678 20.8084 22.4339 20.4934 22.4325 20.175V17.925C22.4233 17.4041 22.2336 16.9024 21.8957 16.5058C21.5579 16.1091 21.0928 15.842 20.58 15.75ZM20.955 20.25C20.9548 20.3565 20.932 20.4618 20.888 20.5587C20.8441 20.6557 20.78 20.7422 20.7 20.8125C20.6162 20.8849 20.5182 20.9389 20.4123 20.9712C20.3063 21.0035 20.1949 21.0133 20.085 21C17.2761 20.6399 14.6671 19.3549 12.6695 17.3477C10.6719 15.3406 9.39926 12.7255 9.05245 9.91502C9.04052 9.80516 9.05098 9.69402 9.0832 9.58832C9.11543 9.48261 9.16876 9.38454 9.23995 9.30002C9.31024 9.22002 9.39675 9.1559 9.49374 9.11194C9.59073 9.06797 9.69597 9.04516 9.80245 9.04502H12.0525C12.2269 9.04114 12.3972 9.09818 12.5341 9.20633C12.671 9.31447 12.7659 9.46695 12.8025 9.63752C12.8325 9.84252 12.87 10.045 12.915 10.245C13.0016 10.6404 13.1169 11.0289 13.26 11.4075L12.21 11.895C12.1202 11.9362 12.0394 11.9947 11.9723 12.0672C11.9052 12.1397 11.8531 12.2247 11.819 12.3174C11.7848 12.4101 11.7693 12.5086 11.7733 12.6073C11.7774 12.706 11.8009 12.8029 11.8425 12.8925C12.9219 15.2046 14.7804 17.0631 17.0925 18.1425C17.2751 18.2175 17.4799 18.2175 17.6625 18.1425C17.756 18.1091 17.8419 18.0574 17.9153 17.9904C17.9887 17.9235 18.0481 17.8426 18.09 17.7525L18.555 16.7025C18.9427 16.8412 19.3384 16.9564 19.74 17.0475C19.94 17.0925 20.1425 17.13 20.3475 17.16C20.518 17.1966 20.6705 17.2915 20.7787 17.4284C20.8868 17.5653 20.9438 17.7356 20.94 17.91L20.955 20.25Z" fill="#064A72"/>
</svg>
