<svg width="20" height="18" viewBox="0 0 20 18" fill="none" xmlns="http://www.w3.org/2000/svg">
<path d="M8.36646 11.4521C8.85067 10.979 9.09277 10.3302 9.09277 9.50562V8.73364H6.52783V9.77954H7.62354L7.61938 9.87915C7.60002 10.1835 7.47965 10.4284 7.2583 10.6138C7.03695 10.7992 6.75334 10.8918 6.40747 10.8918C5.9703 10.8918 5.62166 10.7217 5.36157 10.3813C5.10425 10.0382 4.97559 9.57202 4.97559 8.98267C4.97559 8.39884 5.09456 7.9423 5.33252 7.61304C5.57324 7.28377 5.90666 7.11914 6.33276 7.11914C6.63159 7.11914 6.88615 7.19523 7.09644 7.34741C7.30949 7.49683 7.45337 7.70296 7.52808 7.96582H9.03052C8.95581 7.33219 8.66943 6.8217 8.17139 6.43433C7.67611 6.04419 7.06323 5.84912 6.33276 5.84912C5.43351 5.84912 4.7238 6.13135 4.20361 6.6958C3.68343 7.25749 3.42334 8.02531 3.42334 8.99927C3.42334 9.98429 3.68481 10.7576 4.20776 11.3193C4.73071 11.881 5.45288 12.1619 6.37427 12.1619C7.22095 12.1619 7.88501 11.9253 8.36646 11.4521Z" fill="#38364F"/>
<path d="M9.92998 12H11.4532V6.01099H9.92998V12Z" fill="#38364F"/>
<path d="M12.5685 12H14.0917V9.76709H16.4076V8.60083H14.0917V7.23535H16.6441V6.01099H12.5685V12Z" fill="#38364F"/>
<path fill-rule="evenodd" clip-rule="evenodd" d="M0 2C0 0.89543 0.895431 0 2 0H18C19.1046 0 20 0.895431 20 2V16C20 17.1046 19.1046 18 18 18H2C0.895431 18 0 17.1046 0 16V2ZM2 1.5H18C18.2761 1.5 18.5 1.72386 18.5 2V16C18.5 16.2761 18.2761 16.5 18 16.5H2C1.72386 16.5 1.5 16.2761 1.5 16V2C1.5 1.72386 1.72386 1.5 2 1.5Z" fill="#38364F"/>
</svg>
