<svg width="30" height="30" viewBox="0 0 30 30" fill="none" xmlns="http://www.w3.org/2000/svg">
<rect width="30" height="30" rx="15" fill="#F1F7FA"/>
<path d="M23.334 21.6667H22.5006V11.6667H23.334C23.555 11.6667 23.767 11.579 23.9232 11.4227C24.0795 11.2664 24.1673 11.0544 24.1673 10.8334C24.1673 10.6124 24.0795 10.4004 23.9232 10.2442C23.767 10.0879 23.555 10.0001 23.334 10.0001H22.5006V7.50008C22.5006 7.27907 22.4129 7.06711 22.2566 6.91083C22.1003 6.75455 21.8883 6.66675 21.6673 6.66675H8.33398C8.11297 6.66675 7.90101 6.75455 7.74473 6.91083C7.58845 7.06711 7.50065 7.27907 7.50065 7.50008V10.0001H6.66732C6.4463 10.0001 6.23434 10.0879 6.07806 10.2442C5.92178 10.4004 5.83398 10.6124 5.83398 10.8334C5.83398 11.0544 5.92178 11.2664 6.07806 11.4227C6.23434 11.579 6.4463 11.6667 6.66732 11.6667H7.50065V21.6667H6.66732C6.4463 21.6667 6.23434 21.7545 6.07806 21.9108C5.92178 22.0671 5.83398 22.2791 5.83398 22.5001C5.83398 22.7211 5.92178 22.9331 6.07806 23.0893C6.23434 23.2456 6.4463 23.3334 6.66732 23.3334H23.334C23.555 23.3334 23.767 23.2456 23.9232 23.0893C24.0795 22.9331 24.1673 22.7211 24.1673 22.5001C24.1673 22.2791 24.0795 22.0671 23.9232 21.9108C23.767 21.7545 23.555 21.6667 23.334 21.6667ZM17.5007 21.6667H12.5007V18.7251C12.4986 17.8319 12.7278 16.9535 13.1659 16.1751C13.604 15.3968 14.2361 14.7451 15.0007 14.2834C15.7652 14.7451 16.3973 15.3968 16.8354 16.1751C17.2735 16.9535 17.5027 17.8319 17.5007 18.7251V21.6667ZM20.834 21.6667H19.1673V18.7251C19.1729 17.4503 18.8204 16.1996 18.1501 15.1152C17.4798 14.0309 16.5185 13.1566 15.3757 12.5917C15.2593 12.5331 15.1309 12.5026 15.0007 12.5026C14.8704 12.5026 14.742 12.5331 14.6257 12.5917C13.4828 13.1566 12.5215 14.0309 11.8512 15.1152C11.1809 16.1996 10.8284 17.4503 10.834 18.7251V21.6667H9.16732V11.6667H20.834V21.6667ZM20.834 10.0001H9.16732V8.33341H20.834V10.0001Z" fill="#064A72"/>
</svg>
