<svg width="160" height="160" viewBox="0 0 160 160" fill="none" xmlns="http://www.w3.org/2000/svg">
<circle cx="80" cy="80" r="80" fill="#F2F7FA"/>
<path fill-rule="evenodd" clip-rule="evenodd" d="M101.596 71.6421H102.127C104.337 71.6421 106.127 73.433 106.127 75.6421V106C106.127 108.209 104.337 110 102.127 110H58C55.7909 110 54 108.209 54 106V75.6421C54 73.433 55.7909 71.6421 58 71.6421H58.4217C58.4205 71.1528 58.4358 70.6626 58.468 70.1725C58.7163 66.3913 59.9556 62.7421 62.0612 59.5917C64.1668 56.4413 67.0646 53.9006 70.4633 52.225C73.862 50.5495 77.6419 49.7981 81.4231 50.0464C85.2043 50.2947 88.8535 51.5339 92.0039 53.6395C95.1543 55.7452 97.695 58.643 99.3705 62.0417C100.845 65.0329 101.604 68.3194 101.596 71.6421ZM62.7391 71.6421C62.7379 71.247 62.7502 70.8512 62.7761 70.4554C62.9748 67.4304 63.9662 64.5111 65.6507 61.9907C67.3352 59.4704 69.6534 57.4379 72.3724 56.0974C75.0914 54.757 78.1153 54.1559 81.1402 54.3545C84.1651 54.5532 87.0845 55.5445 89.6048 57.229C92.1252 58.9135 94.1577 61.2318 95.4981 63.9507C96.6795 66.347 97.2866 68.9802 97.2781 71.6421H62.7391Z" fill="#064A72"/>
<rect x="54" y="71.6426" width="52.1274" height="38.3579" rx="4" fill="url(#paint0_linear)"/>
<path fill-rule="evenodd" clip-rule="evenodd" d="M82.5223 93.4219C85.3771 92.4908 87.44 89.807 87.44 86.6414C87.44 82.7032 84.2475 79.5107 80.3093 79.5107C76.3712 79.5107 73.1787 82.7032 73.1787 86.6414C73.1787 89.807 75.2416 92.4909 78.0964 93.422V100.132C78.0964 101.237 78.9919 102.132 80.0964 102.132H80.5223C81.6269 102.132 82.5223 101.237 82.5223 100.132V93.4219Z" fill="#1C1C1C"/>
<defs>
<linearGradient id="paint0_linear" x1="80.0637" y1="71.6426" x2="57.5" y2="110" gradientUnits="userSpaceOnUse">
<stop stop-color="white" stop-opacity="0"/>
<stop offset="1" stop-color="white" stop-opacity="0.3"/>
</linearGradient>
</defs>
</svg>
