<svg width="25" height="24" viewBox="0 0 25 24" fill="none" xmlns="http://www.w3.org/2000/svg">
<path d="M12.4967 22C13.6423 22 14.5795 21.1 14.5795 20H10.4139C10.4139 21.1 11.3512 22 12.4967 22ZM18.7451 16V11C18.7451 7.93 17.0477 5.36 14.0588 4.68V4C14.0588 3.17 13.3611 2.5 12.4967 2.5C11.6324 2.5 10.9346 3.17 10.9346 4V4.68C7.95623 5.36 6.24833 7.92 6.24833 11V16L4.16553 18V19H20.8279V18L18.7451 16ZM16.6623 17H8.33113V11C8.33113 8.52 9.90365 6.5 12.4967 6.5C15.0898 6.5 16.6623 8.52 16.6623 11V17Z" fill="#828282"/>
</svg>
