<svg width="194" height="194" viewBox="0 0 194 194" fill="none" xmlns="http://www.w3.org/2000/svg">
<g clip-path="url(#clip0)">
<path d="M54.3289 0H0V54.3289H54.3289V0Z" fill="#0D0D0D"/>
<path d="M54.3289 0H85.3422V7.77184H93.1141V0H108.621V7.77184H100.886V15.5067H93.1141V23.2785H100.886V31.0504H93.1141V38.7852H85.3422V46.557H77.6074V31.0504H85.3422V23.2785H77.6074V7.77184H62.0637V54.3289H69.8356V46.557H77.6074V62.0637H38.7852V69.8356H31.0504V77.6074H15.5067V69.8356H23.2785V62.0637H15.5067V69.8356H0V54.3289H54.3289V0Z" fill="white"/>
<path d="M93.1141 0H85.3423V7.77184H93.1141V0Z" fill="#0D0D0D"/>
<path d="M116.393 0H108.621V7.77184H116.393V0Z" fill="#0D0D0D"/>
<path d="M116.393 0H139.671V54.3289H194V69.8356H186.228V62.0637H147.443V69.8356H139.671V62.0637H124.164V69.8356H131.899V85.3422H139.671V108.621H155.178V93.1141H162.95V124.164H155.178V116.393H147.443V124.164H131.899V93.1141H124.164V116.393H108.621V124.164H100.886V116.393H93.1141V108.621H77.6074V116.393H69.8356V108.621H62.0637V100.886H54.3289V93.1141H38.7852V100.886H31.0504V93.1141H23.2785V100.886H31.0504V108.621H38.7852V116.393H31.0504V124.164H0V116.393H23.2785V108.621H15.5067V100.886H7.77184V108.621H0V93.1141H15.5067V85.3422H38.7852V69.8356H62.0637V77.6074H69.8356V85.3422H85.3422V93.1141H77.6074V100.886H93.1141V77.6074H100.886V93.1141H108.621V100.886H100.886V108.621H116.393V93.1141H108.621V85.3422H124.164V77.6074H108.621V54.3289H116.393V31.0504H108.621V23.2785H100.886V15.5067H108.621V7.77184H116.393V0Z" fill="white"/>
<path d="M194 0H139.671V54.3289H194V0Z" fill="#0D0D0D"/>
<path d="M46.5572 7.771H7.77197V46.5562H46.5572V7.771Z" fill="white"/>
<path d="M62.064 7.771H77.6076V23.2777H69.8358V31.0495H77.6076V46.5562H69.8358V54.328H62.064V7.771Z" fill="#0D0D0D"/>
<path d="M108.658 7.771H100.886V15.5428H108.658V7.771Z" fill="#0D0D0D"/>
<path d="M131.936 7.771H124.165V38.8214H131.936V7.771Z" fill="#0D0D0D"/>
<path d="M186.229 7.771H147.443V46.5562H186.229V7.771Z" fill="white"/>
<path d="M38.7854 15.5073H15.5068V38.7858H38.7854V15.5073Z" fill="#0D0D0D"/>
<path d="M100.886 15.5073H93.1138V23.2792H100.886V15.5073Z" fill="#0D0D0D"/>
<path d="M178.456 15.5073H155.178V38.7858H178.456V15.5073Z" fill="#0D0D0D"/>
<path d="M77.6078 23.2786H69.8359V31.0504H77.6078V23.2786Z" fill="white"/>
<path d="M85.3793 23.2786H77.6074V31.0504H85.3793V23.2786Z" fill="#0D0D0D"/>
<path d="M100.886 23.2786H108.62V31.0504H116.392V54.3289H108.62V46.5571H100.886V38.7852H93.1138V31.0504H100.886V23.2786Z" fill="#0D0D0D"/>
<path d="M93.1141 38.7859H85.3423V46.5577H93.1141V38.7859Z" fill="#0D0D0D"/>
<path d="M100.886 38.7859H93.1138V46.5577H100.886V38.7859Z" fill="white"/>
<path d="M77.6078 46.5569H85.3426V54.3287H93.1144V46.5569H100.886V54.3287H108.621V77.6072H124.165V85.3421H108.621V93.1139H100.886V77.6072H93.1144V100.886H77.6078V93.1139H85.3426V85.3421H69.8359V77.6072H77.6078V69.8354H100.886V62.0636H77.6078V46.5569Z" fill="#0D0D0D"/>
<path d="M93.1141 46.5569H85.3423V54.3287H93.1141V46.5569Z" fill="white"/>
<path d="M108.658 46.5569H100.886V54.3287H108.658V46.5569Z" fill="white"/>
<path d="M131.936 46.5569H124.165V54.3287H131.936V46.5569Z" fill="#0D0D0D"/>
<path d="M23.2787 62.063H15.5068V69.8348H23.2787V62.063Z" fill="#0D0D0D"/>
<path d="M38.7852 62.063H77.6074V69.8348H69.8355V77.6067H62.0637V69.8348H38.7852V62.063Z" fill="#0D0D0D"/>
<path d="M100.886 62.063H77.6074V69.8348H100.886V62.063Z" fill="white"/>
<path d="M124.164 62.063H139.671V69.8348H147.443V62.063H186.228V69.8348H178.456V85.3415H170.721V100.885H178.456V116.392H170.721V131.899H178.456V139.67H162.949V155.177H170.721V162.949H178.456V170.721H194V178.456H155.178V170.721H162.949V162.949H155.178V170.721H147.443V162.949H139.671V186.227H170.721V193.999H108.621V186.227H124.164V178.456H116.392V155.177H124.164V147.442H108.621V131.899H100.886V124.164H108.621V116.392H124.164V93.1133H131.899V124.164H147.443V116.392H155.178V124.164H162.949V93.1133H155.178V108.62H139.671V85.3415H131.899V69.8348H124.164V62.063Z" fill="#0D0D0D"/>
<path d="M0 69.8359H15.5067V77.6078H31.0504V69.8359H38.7852V85.3426H15.5067V93.1145H0V85.3426H7.77184V77.6078H0V69.8359Z" fill="#0D0D0D"/>
<path d="M77.6078 69.8359H69.8359V77.6078H77.6078V69.8359Z" fill="white"/>
<path d="M155.178 69.8359H162.95V85.3426H147.443V77.6078H155.178V69.8359Z" fill="white"/>
<path d="M186.228 69.8359H178.456V85.3426H186.228V69.8359Z" fill="white"/>
<path d="M194 69.8359H186.229V85.3426H194V69.8359Z" fill="#0D0D0D"/>
<path d="M7.77184 77.6069H0V85.3788H7.77184V77.6069Z" fill="white"/>
<path d="M54.329 77.6069H46.5571V85.3788H54.329V77.6069Z" fill="#0D0D0D"/>
<path d="M170.722 85.3416H178.456V93.1134H186.228V116.392H194V139.67H186.228V147.442H178.456V155.177H186.228V147.442H194V170.721H178.456V162.949H170.722V155.177H162.95V139.67H178.456V131.899H186.228V124.164H178.456V131.899H170.722V116.392H178.456V100.885H170.722V85.3416Z" fill="white"/>
<path d="M186.228 85.3416H178.456V93.1134H186.228V85.3416Z" fill="#0D0D0D"/>
<path d="M194 85.3416H186.229V93.1134H194V85.3416Z" fill="white"/>
<path d="M31.0507 93.1145H23.2788V100.886H31.0507V93.1145Z" fill="#0D0D0D"/>
<path d="M54.2918 93.1145H38.7852V100.886H54.2918V93.1145Z" fill="#0D0D0D"/>
<path d="M108.621 93.1145H116.392V108.621H100.886V100.886H108.621V93.1145Z" fill="#0D0D0D"/>
<path d="M194 93.1145H186.229V116.393H194V93.1145Z" fill="#0D0D0D"/>
<path d="M7.77184 100.885H15.5067V108.62H23.2785V116.392H0V108.62H7.77184V100.885Z" fill="#0D0D0D"/>
<path d="M38.8221 100.885H31.0503V108.657H38.8221V100.885Z" fill="#0D0D0D"/>
<path d="M54.2918 100.885H38.7852V108.657H54.2918V100.885Z" fill="white"/>
<path d="M54.3288 100.885H62.0637V108.62H69.8355V116.392H38.7852V108.62H54.3288V100.885Z" fill="#0D0D0D"/>
<path d="M93.1141 108.62H77.6074V116.392H93.1141V108.62Z" fill="#0D0D0D"/>
<path d="M38.8221 116.393H31.0503V124.165H38.8221V116.393Z" fill="#0D0D0D"/>
<path d="M69.8355 116.393H38.7852V124.165H69.8355V116.393Z" fill="white"/>
<path d="M69.8355 116.393H77.6074V131.899H69.8355V139.671H77.6074V147.443H69.8355V155.178H62.0637V131.899H38.7852V124.165H69.8355V116.393Z" fill="#0D0D0D"/>
<path d="M77.6078 116.393H93.1145V124.165H85.3426V147.443H77.6078V139.671H69.8359V131.9H77.6078V116.393Z" fill="white"/>
<path d="M100.886 116.393H93.1138V124.165H100.886V116.393Z" fill="#0D0D0D"/>
<path d="M31.0504 124.164H0V131.936H31.0504V124.164Z" fill="#0D0D0D"/>
<path d="M31.0504 124.164H38.7852V131.899H62.0637V155.177H69.8356V147.443H77.6074V155.177H85.3422V162.949H77.6074V170.721H62.0637V178.456H77.6074V186.228H69.8356V194H54.3289V139.671H0V131.899H31.0504V124.164Z" fill="white"/>
<path d="M85.3425 124.164H93.1143V155.177H108.621V170.721H100.886V178.456H108.621V186.228H93.1143V178.456H85.3425V186.228H77.6076V178.456H62.064V170.721H77.6076V162.949H85.3425V155.177H77.6076V147.443H85.3425V124.164Z" fill="#0D0D0D"/>
<path d="M93.1138 124.164H100.886V131.899H108.62V147.443H124.164V155.177H116.392V178.456H124.164V186.228H108.62V178.456H100.886V170.721H108.62V155.177H93.1138V124.164Z" fill="white"/>
<path d="M124.164 124.164H116.393V139.671H124.164V124.164Z" fill="white"/>
<path d="M186.228 124.164H178.456V131.936H186.228V124.164Z" fill="#0D0D0D"/>
<path d="M155.178 131.898H131.899V155.177H155.178V131.898Z" fill="white"/>
<path d="M54.3289 139.671H0V194H54.3289V139.671Z" fill="#0D0D0D"/>
<path d="M147.443 139.671H139.671V147.443H147.443V139.671Z" fill="#0D0D0D"/>
<path d="M194 139.671H186.229V147.443H194V139.671Z" fill="#0D0D0D"/>
<path d="M46.5572 147.442H7.77197V186.228H46.5572V147.442Z" fill="white"/>
<path d="M186.228 147.442H178.456V155.214H186.228V147.442Z" fill="#0D0D0D"/>
<path d="M38.7854 155.177H15.5068V178.456H38.7854V155.177Z" fill="#0D0D0D"/>
<path d="M131.936 162.95H124.165V170.722H131.936V162.95Z" fill="white"/>
<path d="M139.671 162.95H147.443V170.722H155.178V178.457H194V186.229H186.228V194.001H170.722V186.229H139.671V162.95Z" fill="white"/>
<path d="M162.95 162.95H155.178V170.722H162.95V162.95Z" fill="white"/>
<path d="M93.1141 178.456H85.3423V186.228H93.1141V178.456Z" fill="white"/>
<path d="M77.6078 186.229H69.8359V194.001H77.6078V186.229Z" fill="#0D0D0D"/>
<path d="M85.3793 186.229H77.6074V194.001H85.3793V186.229Z" fill="white"/>
<path d="M93.1141 186.229H85.3423V194.001H93.1141V186.229Z" fill="#0D0D0D"/>
<path d="M108.62 186.229H93.1138V194.001H108.62V186.229Z" fill="white"/>
<path d="M194 186.229H186.229V194.001H194V186.229Z" fill="#0D0D0D"/>
</g>
<defs>
<clipPath id="clip0">
<rect width="194" height="194" fill="white"/>
</clipPath>
</defs>
</svg>
