<svg width="30" height="30" viewBox="0 0 30 30" fill="none" xmlns="http://www.w3.org/2000/svg">
<rect width="30" height="30" rx="15" fill="#F1F7FA"/>
<path d="M17.9592 12.4999C18.0629 12.5394 18.1731 12.5592 18.2841 12.5582H21.6175C21.8385 12.5582 22.0505 12.4704 22.2067 12.3141C22.363 12.1579 22.4508 11.9459 22.4508 11.7249C22.4508 11.5039 22.363 11.2919 22.2067 11.1356C22.0505 10.9793 21.8385 10.8915 21.6175 10.8915H20.2925L23.0341 8.14988C23.1214 8.07517 23.1922 7.98324 23.2423 7.87986C23.2923 7.77647 23.3204 7.66386 23.3248 7.54909C23.3292 7.43433 23.3099 7.31988 23.268 7.21294C23.2261 7.10601 23.1626 7.00888 23.0814 6.92767C23.0001 6.84646 22.903 6.78291 22.7961 6.74102C22.6891 6.69912 22.5747 6.67978 22.4599 6.68421C22.3452 6.68865 22.2326 6.71676 22.1292 6.76678C22.0258 6.81679 21.9339 6.88765 21.8591 6.97488L19.1175 9.70821V8.38321C19.1175 8.1622 19.0297 7.95024 18.8734 7.79396C18.7171 7.63768 18.5052 7.54988 18.2841 7.54988C18.0631 7.54988 17.8512 7.63768 17.6949 7.79396C17.5386 7.95024 17.4508 8.1622 17.4508 8.38321V11.7165C17.4499 11.8276 17.4696 11.9378 17.5091 12.0415C17.5501 12.1439 17.611 12.2371 17.6882 12.3158C17.7655 12.3945 17.8576 12.4571 17.9592 12.4999ZM21.2008 15.8332C21.0175 15.8332 20.8258 15.7749 20.6425 15.7332C20.2712 15.6514 19.9064 15.5428 19.5508 15.4082C19.1642 15.2676 18.7393 15.2749 18.3577 15.4287C17.9762 15.5826 17.6651 15.8721 17.4841 16.2415L17.3008 16.6165C16.4892 16.165 15.7433 15.6042 15.0842 14.9499C14.4298 14.2907 13.869 13.5449 13.4175 12.7332L13.7675 12.4999C14.137 12.319 14.4265 12.0078 14.5803 11.6263C14.7342 11.2448 14.7415 10.8198 14.6008 10.4332C14.4685 10.0769 14.3599 9.71221 14.2758 9.34155C14.2341 9.15821 14.2008 8.96655 14.1758 8.77488C14.0746 8.1879 13.7672 7.65633 13.3088 7.27591C12.8505 6.89549 12.2714 6.69122 11.6758 6.69988H9.17582C8.81668 6.69651 8.46102 6.77056 8.13307 6.91699C7.80512 7.06342 7.51257 7.27879 7.27534 7.54845C7.03811 7.8181 6.86176 8.13571 6.75831 8.47964C6.65485 8.82358 6.62672 9.18576 6.67582 9.54155C7.11976 13.0327 8.71417 16.2764 11.2072 18.7604C13.7002 21.2444 16.9497 22.827 20.4425 23.2582H20.7591C21.3737 23.2591 21.967 23.0337 22.4258 22.6249C22.6895 22.3891 22.9001 22.1 23.0437 21.7768C23.1874 21.4536 23.2608 21.1036 23.2591 20.7499V18.2499C23.2489 17.671 23.0382 17.1137 22.6628 16.6729C22.2874 16.2322 21.7707 15.9354 21.2008 15.8332ZM21.6175 20.8332C21.6173 20.9515 21.592 21.0685 21.5431 21.1762C21.4943 21.284 21.423 21.3801 21.3342 21.4582C21.241 21.5386 21.1322 21.5987 21.0145 21.6345C20.8968 21.6704 20.7729 21.6813 20.6508 21.6665C17.5299 21.2664 14.631 19.8386 12.4114 17.6085C10.1918 15.3783 8.77782 12.4727 8.39248 9.34988C8.37922 9.22781 8.39084 9.10432 8.42665 8.98687C8.46246 8.86942 8.52171 8.76045 8.60082 8.66655C8.67891 8.57766 8.77503 8.50641 8.8828 8.45756C8.99056 8.40871 9.1075 8.38336 9.22582 8.38321H11.7258C11.9196 8.3789 12.1088 8.44228 12.2609 8.56244C12.413 8.6826 12.5185 8.85202 12.5591 9.04155C12.5925 9.26932 12.6341 9.49432 12.6841 9.71655C12.7804 10.1558 12.9085 10.5875 13.0675 11.0082L11.9008 11.5499C11.8011 11.5956 11.7113 11.6607 11.6368 11.7412C11.5622 11.8218 11.5043 11.9162 11.4664 12.0192C11.4284 12.1222 11.4112 12.2317 11.4157 12.3413C11.4202 12.451 11.4463 12.5587 11.4925 12.6582C12.6918 15.2272 14.7569 17.2922 17.3258 18.4915C17.5287 18.5749 17.7563 18.5749 17.9592 18.4915C18.0631 18.4544 18.1586 18.3969 18.2401 18.3225C18.3217 18.2481 18.3876 18.1583 18.4342 18.0582L18.9508 16.8915C19.3816 17.0456 19.8213 17.1736 20.2675 17.2749C20.4897 17.3249 20.7147 17.3665 20.9425 17.3999C21.132 17.4405 21.3014 17.546 21.4216 17.6981C21.5417 17.8502 21.6051 18.0394 21.6008 18.2332L21.6175 20.8332Z" fill="#064A72"/>
</svg>
