<svg width="21" height="20" viewBox="0 0 21 20" fill="none" xmlns="http://www.w3.org/2000/svg">
<path d="M17.5039 9.58336C17.5068 10.6832 17.2498 11.7683 16.7539 12.75C16.1659 13.9265 15.262 14.916 14.1434 15.6078C13.0249 16.2995 11.7358 16.6662 10.4206 16.6667C9.32068 16.6696 8.23567 16.4126 7.25391 15.9167L2.50391 17.5L4.08724 12.75C3.59135 11.7683 3.33437 10.6832 3.33724 9.58336C3.33775 8.26815 3.70442 6.97907 4.39617 5.86048C5.08793 4.7419 6.07745 3.838 7.25391 3.25002C8.23567 2.75413 9.32068 2.49716 10.4206 2.50002H10.8372C12.5742 2.59585 14.2148 3.32899 15.4449 4.55907C16.6749 5.78915 17.4081 7.42973 17.5039 9.16669V9.58336Z" stroke="#828282" stroke-width="2" stroke-linecap="round" stroke-linejoin="round"/>
</svg>
